<?xml version="1.0" encoding="utf-8"?>
<!-- Generator: Adobe Illustrator 21.0.0, SVG Export Plug-In . SVG Version: 6.00 Build 0)  -->
<svg version="1.1" xmlns="http://www.w3.org/2000/svg" xmlns:xlink="http://www.w3.org/1999/xlink" x="0px" y="0px"
	 viewBox="0 0 422 333" style="enable-background:new 0 0 422 333;" xml:space="preserve">
<style type="text/css">
	.st0{display:none;}
	.st1{display:inline;fill:#1F2F6E;}
	.st2{clip-path:url(#SVGID_2_);fill:#AEF6BF;}
	.st3{clip-path:url(#SVGID_2_);fill:#ADF5BF;}
	.st4{clip-path:url(#SVGID_2_);fill:#ACF4BF;}
	.st5{clip-path:url(#SVGID_2_);fill:#ABF3BF;}
	.st6{clip-path:url(#SVGID_2_);fill:#AAF2BF;}
	.st7{clip-path:url(#SVGID_2_);fill:#A9F1BE;}
	.st8{clip-path:url(#SVGID_2_);fill:#A8F0BE;}
	.st9{clip-path:url(#SVGID_2_);fill:#A7EFBE;}
	.st10{clip-path:url(#SVGID_2_);fill:#A6EEBE;}
	.st11{clip-path:url(#SVGID_2_);fill:#A6EDBE;}
	.st12{clip-path:url(#SVGID_2_);fill:#A5ECBE;}
	.st13{clip-path:url(#SVGID_2_);fill:#A4EBBE;}
	.st14{clip-path:url(#SVGID_2_);fill:#A3EABE;}
	.st15{clip-path:url(#SVGID_2_);fill:#A2E9BD;}
	.st16{clip-path:url(#SVGID_2_);fill:#A1E8BD;}
	.st17{clip-path:url(#SVGID_2_);fill:#A0E7BD;}
	.st18{clip-path:url(#SVGID_2_);fill:#9FE6BD;}
	.st19{clip-path:url(#SVGID_2_);fill:#9EE5BD;}
	.st20{clip-path:url(#SVGID_2_);fill:#9DE3BD;}
	.st21{clip-path:url(#SVGID_2_);fill:#9CE2BD;}
	.st22{clip-path:url(#SVGID_2_);fill:#9BE1BD;}
	.st23{clip-path:url(#SVGID_2_);fill:#9AE0BD;}
	.st24{clip-path:url(#SVGID_2_);fill:#99DFBC;}
	.st25{clip-path:url(#SVGID_2_);fill:#98DEBC;}
	.st26{clip-path:url(#SVGID_2_);fill:#97DDBC;}
	.st27{clip-path:url(#SVGID_2_);fill:#96DCBC;}
	.st28{clip-path:url(#SVGID_2_);fill:#96DBBC;}
	.st29{clip-path:url(#SVGID_2_);fill:#95DABC;}
	.st30{clip-path:url(#SVGID_2_);fill:#94D9BC;}
	.st31{clip-path:url(#SVGID_2_);fill:#93D8BC;}
	.st32{clip-path:url(#SVGID_2_);fill:#92D7BB;}
	.st33{clip-path:url(#SVGID_2_);fill:#91D6BB;}
	.st34{clip-path:url(#SVGID_2_);fill:#90D5BB;}
	.st35{clip-path:url(#SVGID_2_);fill:#8FD4BB;}
	.st36{clip-path:url(#SVGID_2_);fill:#8ED3BB;}
	.st37{clip-path:url(#SVGID_4_);fill:#AEF6BF;}
	.st38{clip-path:url(#SVGID_4_);fill:#ADF5BF;}
	.st39{clip-path:url(#SVGID_4_);fill:#ACF4BF;}
	.st40{clip-path:url(#SVGID_4_);fill:#ABF3BF;}
	.st41{clip-path:url(#SVGID_4_);fill:#AAF2BF;}
	.st42{clip-path:url(#SVGID_4_);fill:#A9F1BE;}
	.st43{clip-path:url(#SVGID_4_);fill:#A8F0BE;}
	.st44{clip-path:url(#SVGID_4_);fill:#A7EFBE;}
	.st45{clip-path:url(#SVGID_4_);fill:#A6EEBE;}
	.st46{clip-path:url(#SVGID_4_);fill:#A6EDBE;}
	.st47{clip-path:url(#SVGID_4_);fill:#A5ECBE;}
	.st48{clip-path:url(#SVGID_4_);fill:#A4EBBE;}
	.st49{clip-path:url(#SVGID_4_);fill:#A3EABE;}
	.st50{clip-path:url(#SVGID_4_);fill:#A2E9BD;}
	.st51{clip-path:url(#SVGID_4_);fill:#A1E8BD;}
	.st52{clip-path:url(#SVGID_4_);fill:#A0E7BD;}
	.st53{clip-path:url(#SVGID_4_);fill:#9FE6BD;}
	.st54{clip-path:url(#SVGID_4_);fill:#9EE5BD;}
	.st55{clip-path:url(#SVGID_4_);fill:#9DE3BD;}
	.st56{clip-path:url(#SVGID_6_);fill:#A6EDBE;}
	.st57{clip-path:url(#SVGID_6_);fill:#A5ECBE;}
	.st58{clip-path:url(#SVGID_6_);fill:#A4EBBE;}
	.st59{clip-path:url(#SVGID_6_);fill:#A3EABE;}
	.st60{clip-path:url(#SVGID_6_);fill:#A2E9BD;}
	.st61{clip-path:url(#SVGID_6_);fill:#A1E8BD;}
	.st62{clip-path:url(#SVGID_6_);fill:#A0E7BD;}
	.st63{clip-path:url(#SVGID_6_);fill:#9FE6BD;}
	.st64{clip-path:url(#SVGID_6_);fill:#9EE5BD;}
	.st65{clip-path:url(#SVGID_6_);fill:#9DE3BD;}
	.st66{clip-path:url(#SVGID_6_);fill:#9CE2BD;}
	.st67{clip-path:url(#SVGID_6_);fill:#9BE1BD;}
	.st68{clip-path:url(#SVGID_6_);fill:#9AE0BD;}
	.st69{clip-path:url(#SVGID_6_);fill:#99DFBC;}
	.st70{clip-path:url(#SVGID_6_);fill:#98DEBC;}
	.st71{fill:#D6EDEF;}
	.st72{fill:#77ABE9;}
	.st73{fill:#99C9F0;}
	.st74{fill:#FFFFFF;}
	.st75{fill:#EBEEFE;}
	.st76{fill:#7076DE;}
	.st77{clip-path:url(#SVGID_8_);}
	.st78{fill:#CFD3E8;}
	.st79{fill:#1F2F6E;}
	.st80{fill:#CD6E95;}
	.st81{fill:#9A83E2;}
	.st82{fill:#795DC6;}
	.st83{fill:#8D6FD7;}
	.st84{fill:#5665C7;}
	.st85{fill:#38234A;}
	.st86{fill:#7EA1F4;}
	.st87{opacity:0.2;}
	.st88{fill:#260610;}
	.st89{opacity:0.39;}
	.st90{fill:#E7BC90;}
	.st91{fill:#36458E;}
	.st92{fill:#D88773;}
	.st93{fill:#D47541;}
	.st94{fill:#0C112C;}
	.st95{opacity:0.22;}
	.st96{fill:#E5BB91;}
	.st97{clip-path:url(#SVGID_10_);fill:#AEF6BF;}
	.st98{clip-path:url(#SVGID_10_);fill:#ADF5BF;}
	.st99{clip-path:url(#SVGID_10_);fill:#ACF4BF;}
	.st100{clip-path:url(#SVGID_10_);fill:#ABF3BF;}
	.st101{clip-path:url(#SVGID_10_);fill:#AAF2BF;}
	.st102{clip-path:url(#SVGID_10_);fill:#A9F1BE;}
	.st103{clip-path:url(#SVGID_10_);fill:#A8F0BE;}
	.st104{clip-path:url(#SVGID_10_);fill:#A7EFBE;}
	.st105{clip-path:url(#SVGID_10_);fill:#A6EEBE;}
	.st106{clip-path:url(#SVGID_10_);fill:#A6EDBE;}
	.st107{clip-path:url(#SVGID_10_);fill:#A5ECBE;}
	.st108{clip-path:url(#SVGID_10_);fill:#A4EBBE;}
	.st109{clip-path:url(#SVGID_10_);fill:#A3EABE;}
	.st110{clip-path:url(#SVGID_10_);fill:#A2E9BD;}
	.st111{clip-path:url(#SVGID_10_);fill:#A1E8BD;}
	.st112{clip-path:url(#SVGID_10_);fill:#A0E7BD;}
	.st113{clip-path:url(#SVGID_10_);fill:#9FE6BD;}
	.st114{clip-path:url(#SVGID_10_);fill:#9EE5BD;}
	.st115{clip-path:url(#SVGID_10_);fill:#9DE3BD;}
	.st116{clip-path:url(#SVGID_10_);fill:#9CE2BD;}
	.st117{clip-path:url(#SVGID_10_);fill:#9BE1BD;}
	.st118{clip-path:url(#SVGID_10_);fill:#9AE0BD;}
	.st119{clip-path:url(#SVGID_10_);fill:#99DFBC;}
	.st120{clip-path:url(#SVGID_10_);fill:#98DEBC;}
	.st121{clip-path:url(#SVGID_10_);fill:#97DDBC;}
	.st122{clip-path:url(#SVGID_10_);fill:#96DCBC;}
	.st123{clip-path:url(#SVGID_10_);fill:#96DBBC;}
	.st124{clip-path:url(#SVGID_10_);fill:#95DABC;}
	.st125{clip-path:url(#SVGID_10_);fill:#94D9BC;}
	.st126{clip-path:url(#SVGID_10_);fill:#93D8BC;}
	.st127{clip-path:url(#SVGID_10_);fill:#92D7BB;}
	.st128{clip-path:url(#SVGID_10_);fill:#91D6BB;}
	.st129{clip-path:url(#SVGID_10_);fill:#90D5BB;}
	.st130{clip-path:url(#SVGID_10_);fill:#8FD4BB;}
	.st131{clip-path:url(#SVGID_10_);fill:#8ED3BB;}
	.st132{fill:#EAC689;}
	.st133{fill:#121E3A;}
	.st134{fill:#5E2333;}
	.st135{fill:#D78142;}
	.st136{fill:#4B5BAD;}
	.st137{fill:#8C523E;}
	.st138{fill:#BC5F4A;}
	.st139{fill:#DCE4EF;}
	.st140{fill:#FFD3CC;}
	.st141{fill:#51332A;}
	.st142{fill:#F7BF93;}
	.st143{fill:#1A214A;}
	.st144{opacity:0.29;}
	.st145{fill:#EA8B75;}
	.st146{fill:#812D65;}
	.st147{fill:#B6AEAD;}
	.st148{fill:#5F7EAF;}
	.st149{clip-path:url(#SVGID_12_);fill:#6132C3;}
	.st150{clip-path:url(#SVGID_12_);fill:#6233C4;}
	.st151{clip-path:url(#SVGID_12_);fill:#6333C5;}
	.st152{clip-path:url(#SVGID_12_);fill:#6433C6;}
	.st153{clip-path:url(#SVGID_12_);fill:#6533C7;}
	.st154{clip-path:url(#SVGID_12_);fill:#6633C8;}
	.st155{clip-path:url(#SVGID_12_);fill:#6733C9;}
	.st156{clip-path:url(#SVGID_12_);fill:#6734CA;}
	.st157{clip-path:url(#SVGID_12_);fill:#6834CB;}
	.st158{clip-path:url(#SVGID_12_);fill:#6934CC;}
	.st159{clip-path:url(#SVGID_12_);fill:#6A34CD;}
	.st160{clip-path:url(#SVGID_12_);fill:#6B34CE;}
	.st161{clip-path:url(#SVGID_12_);fill:#6C35CF;}
	.st162{fill:#5F32C1;}
	.st163{fill:#E5E5FE;}
	.st164{opacity:0.47;}
	.st165{fill:#2B2A55;}
	.st166{fill:#483686;}
	.st167{opacity:0.12;}
	.st168{fill:#8E3863;}
	.st169{fill:#202C43;}
	.st170{opacity:0.36;}
	.st171{fill:#E079C3;}
	.st172{fill:#FFFFFB;}
	.st173{fill:url(#SVGID_13_);}
	.st174{fill:url(#SVGID_14_);}
</style>
<g id="Background" class="st0">
	<rect x="-273.4" y="-67.1" class="st1" width="750" height="500"/>
</g>
<g id="Objects">
	<g>
		<g>
			<g>
				<defs>
					<path id="SVGID_1_" d="M396.7,321.8c2.3-5.9,1.8-12.9-1.5-18.3c-3.2-5.5-9.1-9.3-15.4-10.1c2-7.4,2.8-15.6-0.7-22.5
						c-3.4-6.8-12.2-11.4-19.1-7.9c0.5-8.6,0.3-18.7-6.6-23.7c-4.1-2.9-9.7-3.2-14.4-1.3c-4.7,1.8-8.4,5.5-11.2,9.8
						c-4.5,7-6.4,15.7-5.1,23.9c-9.9,0.1-19.5,5.6-24.7,14c-5.1,8.4-2.3,29.7,2.1,38.5L396.7,321.8z"/>
				</defs>
				<clipPath id="SVGID_2_">
					<use xlink:href="#SVGID_1_"  style="overflow:visible;"/>
				</clipPath>
				<polygon class="st2" points="389.9,236.2 390.7,242.2 292.9,254.7 292.9,236.2 				"/>
				<polygon class="st2" points="390.7,242.2 390.9,243.7 292.9,256.2 292.9,254.7 				"/>
				<polygon class="st3" points="390.9,243.7 391.1,245.2 292.9,257.7 292.9,256.2 				"/>
				<polygon class="st4" points="391.1,245.2 391.3,246.7 292.9,259.3 292.9,257.7 				"/>
				<polygon class="st5" points="391.3,246.7 391.5,248.2 292.9,260.8 292.9,259.3 				"/>
				<polygon class="st6" points="391.5,248.2 391.6,249.6 292.9,262.3 292.9,260.8 				"/>
				<polygon class="st7" points="391.6,249.6 391.8,251.1 292.9,263.8 292.9,262.3 				"/>
				<polygon class="st8" points="391.8,251.1 392,252.6 292.9,265.3 292.9,263.8 				"/>
				<polygon class="st9" points="392,252.6 392.2,254.1 292.9,266.9 292.9,265.3 				"/>
				<polygon class="st10" points="392.2,254.1 392.4,255.6 292.9,268.4 292.9,266.9 				"/>
				<polygon class="st11" points="392.4,255.6 392.6,257.1 292.9,269.9 292.9,268.4 				"/>
				<polygon class="st12" points="392.6,257.1 392.8,258.6 292.9,271.4 292.9,269.9 				"/>
				<polygon class="st13" points="392.8,258.6 393,260.1 292.9,272.9 292.9,271.4 				"/>
				<polygon class="st14" points="393,260.1 393.2,261.6 292.9,274.5 292.9,272.9 				"/>
				<polygon class="st15" points="393.2,261.6 393.4,263.1 292.9,276 292.9,274.5 				"/>
				<polygon class="st16" points="393.4,263.1 393.6,264.6 292.9,277.5 292.9,276 				"/>
				<polygon class="st17" points="393.6,264.6 393.8,266.1 292.9,279 292.9,277.5 				"/>
				<polygon class="st18" points="393.8,266.1 393.9,267.6 292.9,280.5 292.9,279 				"/>
				<polygon class="st19" points="393.9,267.6 394.1,269.1 292.9,282.1 292.9,280.5 				"/>
				<polygon class="st20" points="394.1,269.1 394.3,270.6 292.9,283.6 292.9,282.1 				"/>
				<polygon class="st21" points="394.3,270.6 394.5,272.1 292.9,285.1 292.9,283.6 				"/>
				<polygon class="st22" points="394.5,272.1 394.7,273.6 292.9,286.6 292.9,285.1 				"/>
				<polygon class="st23" points="394.7,273.6 394.9,275.1 292.9,288.1 292.9,286.6 				"/>
				<polygon class="st24" points="394.9,275.1 395.1,276.6 292.9,289.7 292.9,288.1 				"/>
				<polygon class="st25" points="395.1,276.6 395.3,278.1 292.9,291.2 292.9,289.7 				"/>
				<polygon class="st26" points="395.3,278.1 395.5,279.6 292.9,292.7 292.9,291.2 				"/>
				<polygon class="st27" points="395.5,279.6 395.7,281.1 292.9,294.2 292.9,292.7 				"/>
				<polygon class="st28" points="395.7,281.1 395.9,282.6 292.9,295.7 292.9,294.2 				"/>
				<polygon class="st29" points="395.9,282.6 396.1,284 292.9,297.3 292.9,295.7 				"/>
				<polygon class="st30" points="396.1,284 396.2,285.5 292.9,298.8 292.9,297.3 				"/>
				<polygon class="st31" points="396.2,285.5 396.4,287 292.9,300.3 292.9,300.2 292.9,298.8 				"/>
				
					<rect x="292.6" y="293.7" transform="matrix(0.9918 -0.1276 0.1276 0.9918 -34.7584 46.4144)" class="st32" width="104.3" height="1.5"/>
				
					<rect x="292.8" y="295.2" transform="matrix(0.9919 -0.1269 0.1269 0.9919 -34.7625 46.1692)" class="st33" width="104.3" height="1.5"/>
				
					<rect x="293" y="296.7" transform="matrix(0.9919 -0.127 0.127 0.9919 -34.9719 46.2376)" class="st34" width="104.3" height="1.5"/>
				
					<rect x="293.2" y="298.2" transform="matrix(0.9918 -0.1276 0.1276 0.9918 -35.305 46.4923)" class="st35" width="104.3" height="1.5"/>
				
					<rect x="293.4" y="299.6" transform="matrix(0.9919 -0.1269 0.1269 0.9919 -35.3272 46.2785)" class="st36" width="104.3" height="1.5"/>
				<polygon class="st36" points="397.4,294.5 399,307.2 399,324.3 296,324.3 293.9,307.8 				"/>
			</g>
		</g>
		<g>
			<g>
				<g>
					<defs>
						<path id="SVGID_3_" d="M136.1,319.2c0.3-16.3-0.6-32.7-3.8-48.7c-1.4-6.8-3.4-14.1-8.9-18.4c-6.5-5.1-16.4-4.3-23,0.6
							c-6.6,4.9-10.2,13.2-10.9,21.4c-0.2,2.3-0.3,4.8-2,6.4c-1.5,1.4-3.8,1.5-5.9,2c-6.8,1.7-11.4,8.4-12.7,15.3
							c-1.3,6.9,0.1,14,1.4,20.9L136.1,319.2z"/>
					</defs>
					<clipPath id="SVGID_4_">
						<use xlink:href="#SVGID_3_"  style="overflow:visible;"/>
					</clipPath>
					<polygon class="st37" points="123.8,246.9 126.7,251.5 67.5,288.9 67.5,246.9 					"/>
					<polygon class="st37" points="126.7,251.5 128.5,254.3 67.5,292.9 67.5,288.9 					"/>
					<polygon class="st38" points="128.5,254.3 130.3,257.1 67.5,296.8 67.5,292.9 					"/>
					<polygon class="st39" points="130.3,257.1 132,259.9 67.5,300.8 67.5,296.8 					"/>
					<polygon class="st40" points="132,259.9 133.8,262.8 67.5,304.7 67.5,300.8 					"/>
					<polygon class="st41" points="133.8,262.8 135.6,265.6 67.5,308.6 67.5,304.7 					"/>
					<polygon class="st42" points="135.6,265.6 136.4,266.8 136.4,269.1 67.5,312.6 67.5,308.6 					"/>
					<polygon class="st43" points="136.4,273 67.9,316.3 67.5,315.9 67.5,312.6 136.4,269.1 					"/>
					<polygon class="st44" points="136.4,277 69.6,319.2 67.9,316.3 136.4,273 					"/>
					<polygon class="st45" points="136.4,280.9 75.8,319.2 69.7,319.2 69.6,319.2 136.4,277 					"/>
					<polygon class="st46" points="136.4,284.8 82.1,319.2 75.8,319.2 136.4,280.9 					"/>
					<polygon class="st47" points="136.4,288.8 88.3,319.2 82.1,319.2 136.4,284.8 					"/>
					<polygon class="st48" points="136.4,292.7 94.5,319.2 88.3,319.2 136.4,288.8 					"/>
					<polygon class="st49" points="136.4,296.7 100.8,319.2 94.5,319.2 136.4,292.7 					"/>
					<polygon class="st50" points="136.4,300.6 107,319.2 100.8,319.2 136.4,296.7 					"/>
					<polygon class="st51" points="136.4,304.6 113.3,319.2 107,319.2 136.4,300.6 					"/>
					<polygon class="st52" points="136.4,308.5 119.5,319.2 113.3,319.2 136.4,304.6 					"/>
					<polygon class="st53" points="136.4,312.5 125.7,319.2 119.5,319.2 136.4,308.5 					"/>
					<polygon class="st54" points="136.4,316.4 132,319.2 125.7,319.2 136.4,312.5 					"/>
					<polygon class="st55" points="132,319.2 136.4,316.4 136.4,319.2 					"/>
				</g>
			</g>
			<g>
				<g>
					<defs>
						<path id="SVGID_5_" d="M128.1,292.9c8.1-3.4,17.9-2.2,24.9,2.9c7,5.2,11.1,14.2,10.2,22.9l-36.6,0.4L128.1,292.9z"/>
					</defs>
					<clipPath id="SVGID_6_">
						<use xlink:href="#SVGID_5_"  style="overflow:visible;"/>
					</clipPath>
					<polygon class="st56" points="128.9,289.6 126.7,290.9 126.7,289.6 					"/>
					<polygon class="st57" points="135.2,289.6 126.7,294.9 126.7,290.9 128.9,289.6 					"/>
					<polygon class="st58" points="141.4,289.6 126.7,298.8 126.7,294.9 135.2,289.6 					"/>
					<polygon class="st59" points="147.6,289.6 126.7,302.8 126.7,298.8 141.4,289.6 					"/>
					<polygon class="st60" points="153.7,289.6 153.8,289.6 126.7,306.7 126.7,302.8 147.6,289.6 					"/>
					<polygon class="st61" points="153.8,289.6 155.6,292.4 126.7,310.7 126.7,306.7 					"/>
					<polygon class="st62" points="155.6,292.4 157.3,295.3 126.7,314.6 126.7,310.7 					"/>
					<polygon class="st63" points="157.3,295.3 159.1,298.1 126.7,318.6 126.7,314.6 					"/>
					<polygon class="st64" points="159.1,298.1 160.9,300.9 132,319.2 126.7,319.2 126.7,318.6 					"/>
					<polygon class="st65" points="160.9,300.9 162.7,303.7 138.2,319.2 132,319.2 					"/>
					<polygon class="st66" points="162.7,303.7 164.1,306 164.1,306.8 144.4,319.2 138.2,319.2 					"/>
					<polygon class="st67" points="164.1,310.7 150.7,319.2 144.4,319.2 164.1,306.8 					"/>
					<polygon class="st68" points="164.1,314.6 156.9,319.2 150.7,319.2 164.1,310.7 					"/>
					<polygon class="st69" points="164.1,318.6 163.2,319.2 156.9,319.2 164.1,314.6 					"/>
					<polygon class="st70" points="163.2,319.2 164.1,318.6 164.1,319.2 					"/>
				</g>
			</g>
		</g>
		<g>
			<path class="st71" d="M156.3,82h88.4c0,0-3.5-5.5-12.4-5.8c-8.9-0.3-8.9-0.3-8.9-0.3s2.6-7.2-3.7-10.1
				c-6.3-2.9-24.5,8.1-24.5,8.1s1.7-2.6-4-3.2c-5.8-0.6-16.1,6.9-16.1,6.9S154.8,78.5,156.3,82z"/>
		</g>
		<g>
			<path class="st71" d="M291.3,132.2h47.9c0,0-1.9-3-6.7-3.1c-4.8-0.2-4.8-0.2-4.8-0.2s1.4-3.9-2-5.5c-3.4-1.6-13.3,4.4-13.3,4.4
				s0.9-1.4-2.2-1.7c-3.1-0.3-8.7,3.7-8.7,3.7S290.5,130.3,291.3,132.2z"/>
		</g>
		<g>
			<polygon class="st71" points="342.3,163.1 342.3,177.3 335.6,177.1 335.6,182.4 330.9,177.1 308,176.9 307.5,162.7 			"/>
		</g>
		<g>
			<g>
				<polygon class="st72" points="255.4,111.7 255.4,134.9 274.6,134.9 274.6,116.9 269.1,111.4 				"/>
			</g>
			<g>
				<polygon class="st73" points="269.1,111.4 269.1,117.3 274.6,116.9 				"/>
			</g>
			<g>
				<g>
					<path class="st74" d="M257.9,121.6c4.7-0.1,9.4-0.2,14.1-0.2c0.3,0,0.3-0.5,0-0.5c-4.7,0-9.4,0.1-14.1,0.2
						C257.6,121.1,257.6,121.6,257.9,121.6L257.9,121.6z"/>
				</g>
			</g>
			<g>
				<g>
					<path class="st74" d="M257.9,124.9c4.7-0.1,9.4-0.2,14.1-0.2c0.3,0,0.3-0.5,0-0.5c-4.7,0-9.4,0.1-14.1,0.2
						C257.6,124.4,257.6,124.9,257.9,124.9L257.9,124.9z"/>
				</g>
			</g>
			<g>
				<g>
					<path class="st74" d="M257.9,128.2c4.7-0.1,9.4-0.2,14.1-0.2c0.3,0,0.3-0.5,0-0.5c-4.7,0-9.4,0.1-14.1,0.2
						C257.6,127.7,257.6,128.2,257.9,128.2L257.9,128.2z"/>
				</g>
			</g>
		</g>
		<g>
			<g>
				<g>
					<g>
						<path class="st75" d="M127.6,116.5l-18.4-6.9l7.7,9.1c1.1-0.3,2.4,0,3.2,1c1.1,1.3,0.9,3.2-0.3,4.3c-1.3,1.1-3.2,0.9-4.3-0.4
							c-1-1.1-1-2.8,0-3.9l-7.6-8.9l3.9,20.5c0,0,6-3.4,11.4,3.4l6.8-5.8C130.1,129,124.5,122.2,127.6,116.5z"/>
					</g>
				</g>
			</g>
			<g>
				
					<rect x="96.4" y="109.6" transform="matrix(0.7614 -0.6483 0.6483 0.7614 -45.133 96.9186)" class="st76" width="25.5" height="0.4"/>
			</g>
			<g>
				
					<rect x="117.6" y="100.2" transform="matrix(0.6477 0.7619 -0.7619 0.6477 119.2166 -54.8221)" class="st76" width="2.5" height="2.5"/>
			</g>
			<g>
				
					<rect x="108.8" y="94.5" transform="matrix(0.6477 0.7619 -0.7619 0.6477 111.7526 -50.1075)" class="st76" width="2.5" height="2.5"/>
			</g>
			<g>
				
					<rect x="97.7" y="117.2" transform="matrix(0.6474 0.7621 -0.7621 0.6474 125.1491 -33.6519)" class="st76" width="2.5" height="2.5"/>
			</g>
			<g>
				
					<rect x="94.1" y="107.5" transform="matrix(0.6475 0.762 -0.762 0.6475 116.5009 -34.3241)" class="st76" width="2.5" height="2.5"/>
			</g>
			<g>
				<path class="st76" d="M102.2,112.9c-0.4,0-0.7,0-1.1-0.1c-3.8-0.6-5.9-3.9-6-4l0.3-0.2c0,0,2.1,3.3,5.7,3.9
					c2.4,0.4,5-0.6,7.6-2.8c2.6-2.2,3.9-4.6,4-7.1c0.1-3.9-2.8-6.8-2.9-6.8l0.3-0.3c0.1,0.1,3.1,3,3,7.1c-0.1,2.6-1.5,5.1-4.1,7.4
					C106.7,111.9,104.4,112.9,102.2,112.9z"/>
			</g>
			<g>
				<defs>
					<path id="SVGID_7_" d="M127.6,116.5l-18.4-6.9l7.7,9.1c1.1-0.3,2.4,0,3.2,1c1.1,1.3,0.9,3.2-0.4,4.3c-1.3,1.1-3.2,0.9-4.3-0.4
						c-1-1.1-1-2.8,0-3.9l-7.6-8.9l3.9,20.5c0,0,6-3.4,11.4,3.4l6.8-5.8C130,128.9,124.4,122.2,127.6,116.5z"/>
				</defs>
				<clipPath id="SVGID_8_">
					<use xlink:href="#SVGID_7_"  style="overflow:visible;"/>
				</clipPath>
				<g class="st77">
					<polyline class="st78" points="116.4,112.3 117.5,130.7 119.5,131.8 118.2,112.5 116.5,112.2 					"/>
				</g>
				<g class="st77">
					<polygon class="st78" points="119.8,113.6 120.9,132.9 121.3,133.4 120.3,113.6 					"/>
				</g>
			</g>
		</g>
		<g>
			<path class="st79" d="M298.4,175.3l7.2-20.7l-0.1,0l-21-7.3l-2.5,7.2c-0.3,1-1.6,1.2-2.2,0.4c-1.3-1.6-3.3-2.6-5.1-1
				c-1.5,1.2-1.6,3.6-0.3,5c1.1,1.2,2.4,1,3.8,0.7c1-0.2,1.8,0.8,1.4,1.7l-2.5,7.1l7.4,2.6c0.8,0.1,1.5-0.7,1.4-1.5
				c-0.3-1.4-0.4-2.8,0.7-3.8c1.4-1.3,3.8-1.1,5,0.3c1.5,1.8,0.6,3.8-1,5.1c-0.7,0.6-0.6,1.6,0.1,2.1l4.5,1.6l3,1l0.1,0L298.4,175.3
				L298.4,175.3z"/>
		</g>
		<g>
			<path class="st80" d="M164,148.9c-0.3-0.9-1.2-1.1-2-0.5c-1.2,0.8-2.2,1.6-3.7,1c-1.8-0.7-2.8-2.9-2-4.6c1-2.2,3.2-2.2,5.1-1.3
				c0.8,0.4,1.7-0.2,1.8-1l-0.6-4.7l-0.4-3.1l0-0.1l-2.5,0.3l-18.7,2.3v0l-1,0.1l0,0.1l0.3,2.9l0.6,5c0,0,0,0.1,0,0.1l0.7,6.1
				c0,0,0,0,0,0.1l1,7.9l0.1,0l0,0.1l2.9-0.3l5-0.6c0.8,0.2,1.2,1,0.9,1.8c-0.9,1.9-0.9,4.1,1.3,5.1c1.8,0.8,4-0.1,4.7-1.9
				c0.6-1.5-0.2-2.6-1-3.8c-0.5-0.7-0.2-1.6,0.4-1.9l7.9-1l-0.4-3.2h0L164,148.9z"/>
		</g>
		<g>
			<g>
				<rect x="193.6" y="155.7" class="st81" width="54.3" height="54.3"/>
			</g>
			<g>
				<polygon class="st81" points="248,155.7 235.2,143.9 190.9,156.3 				"/>
			</g>
			<g>
				<polygon class="st82" points="180.8,198.3 192.6,210.1 248,210.1 235.2,198.3 				"/>
			</g>
			<g>
				<rect x="180.8" y="143.9" class="st83" width="54.3" height="54.3"/>
			</g>
		</g>
		<g>
			<g>
				<rect x="141.7" y="97.9" class="st84" width="65.2" height="31.7"/>
			</g>
			<g>
				<g>
					<path class="st74" d="M148.1,122.2h14.5c0,0-1-6.3-7.3-6C149.1,116.4,148.1,122.2,148.1,122.2z"/>
				</g>
				<g>
					<circle class="st74" cx="155.5" cy="110.5" r="4.4"/>
				</g>
			</g>
			<g>
				<g>
					<path class="st74" d="M167.1,109.7c11.4-0.1,22.8-0.2,34.2-0.3c0.6,0,0.6-1,0-1c-11.4,0.1-22.8,0.2-34.2,0.3
						C166.5,108.7,166.5,109.7,167.1,109.7L167.1,109.7z"/>
				</g>
			</g>
			<g>
				<g>
					<path class="st74" d="M167.1,114.8c11.4-0.1,22.8-0.2,34.2-0.3c0.6,0,0.6-1,0-1c-11.4,0.1-22.8,0.2-34.2,0.3
						C166.5,113.9,166.5,114.8,167.1,114.8L167.1,114.8z"/>
				</g>
			</g>
			<g>
				<g>
					<path class="st74" d="M167.1,120.3c6.8-0.1,13.6-0.1,20.4-0.2c0.6,0,0.6-1,0-1c-6.8,0.1-13.6,0.1-20.4,0.2
						C166.5,119.3,166.5,120.3,167.1,120.3L167.1,120.3z"/>
				</g>
			</g>
			<g>
				<polygon class="st84" points="194.9,129.6 200.4,136.1 200.4,129.6 				"/>
			</g>
		</g>
		<g>
			<g>
				<g>
					<path class="st85" d="M241.2,316c0,0-0.4,4.4-0.8,5.9l-12.2,0.2c0.1-0.3,1-1.2,4-1.3l0.6-4.9C232.8,316,238.6,316,241.2,316z"
						/>
				</g>
				<g>
					<path class="st85" d="M261.8,316c0,0-0.4,4.4-0.8,5.9l-12.2,0.2c0.1-0.3,1-1.2,4-1.3l0.6-4.9C253.4,316,259.2,316,261.8,316z"
						/>
				</g>
				<g>
					<g>
						<path class="st86" d="M267.9,232.5c0,0-1,24.4-1.7,38.3c-0.7,14-3.5,46.6-3.5,46.6h-10.4c0,0-0.9-65.5-1.3-65.6
							c-0.4-0.1-2.9,18.3-4.7,25.4c-1.8,7.1-4.2,41.3-4.9,41c-0.7-0.2-9.7,0-9.7,0s-0.7-28.2,0.5-39.3c1.2-11.1,6.8-46.5,6.8-46.5
							H267.9z"/>
					</g>
					<g class="st87">
						<g>
							<path class="st88" d="M251.2,251.8c-5.2,0.5-1.8-12.4-1-14.9c0.1-0.4,0.6-0.2,0.6,0.2c-0.3,1.8-3.3,14.3,0.5,14.3
								C251.5,251.4,251.5,251.7,251.2,251.8L251.2,251.8z"/>
						</g>
					</g>
					<g class="st89">
						<g>
							<path class="st88" d="M253.3,236.6c-0.5,4.9-1.4,9.7-2.1,14.5c0,0.2-0.4,0.1-0.3-0.1c0.7-4.8,1.4-9.7,2.3-14.5
								C253.2,236.5,253.3,236.5,253.3,236.6L253.3,236.6z"/>
						</g>
					</g>
					<g class="st87">
						<g>
							<path class="st88" d="M244.5,237.9c-1,3.1-3.9,5.2-7.2,5.4c-0.4,0-0.4-0.6,0-0.7c3.1-0.2,5.6-2.1,6.9-4.8
								C244.3,237.6,244.6,237.7,244.5,237.9L244.5,237.9z"/>
						</g>
					</g>
					<g class="st87">
						<g>
							<path class="st88" d="M267.4,245.5c-3.9-0.2-7.6-3.3-9.1-6.8c-0.1-0.3,0.3-0.6,0.5-0.3c1.9,3.7,4.8,5.6,8.6,6.7
								C267.7,245.2,267.6,245.5,267.4,245.5L267.4,245.5z"/>
						</g>
					</g>
					<g class="st87">
						<g>
							<path class="st88" d="M265.6,245.6c0.2,23.8-1.3,47.5-3.6,71.2c0,0.4-0.7,0.4-0.6,0c2.5-23.6,3.6-47.4,4-71.2
								C265.4,245.5,265.6,245.5,265.6,245.6L265.6,245.6z"/>
						</g>
					</g>
					<g class="st87">
						<g>
							<path class="st88" d="M250.6,251.2c-5.2,22.3-9.2,44.3-9.4,67.3c0,0.4-0.6,0.4-0.6,0c0.3-22.5,2.8-45.8,9.8-67.3
								C250.5,251,250.6,251.1,250.6,251.2L250.6,251.2z"/>
						</g>
					</g>
				</g>
			</g>
			<g>
				<g>
					<path class="st90" d="M232.4,206c0,0-3.1,20.3-2.6,23c0.2,0.9,8.8,4,9.5-2.2c0.7-6.2,0.9-21.7,0.9-21.7L232.4,206z"/>
				</g>
				<g>
					<path class="st84" d="M273.4,189.7c0,0-6.3-8.1-14.3-9.1h-11.8c0,0-8.6,1.3-13.3,7.9l3.7,13.3l0.2,32.5l30.6,1.3l-2.1-34.3
						L273.4,189.7z"/>
				</g>
				<g>
					<path class="st84" d="M235,187.3c0,0-5.8,7-6.8,16.1l9.6,5C237.8,208.4,239.8,186.9,235,187.3z"/>
				</g>
				<g>
					<path class="st90" d="M229.7,229l-6.4-21.1l6.1-1.4l8.2,18.5C237.3,227.8,229.7,229,229.7,229z"/>
				</g>
				<g>
					<g>
						<path class="st91" d="M237.8,199.4c0.7,11.6,0.8,23.3,0.9,34.9c0,0.4-0.6,0.4-0.6,0c-0.4-11.6-0.8-23.3-0.6-34.9
							C237.5,199.2,237.8,199.2,237.8,199.4L237.8,199.4z"/>
					</g>
				</g>
				<g>
					<polygon class="st91" points="262.2,200.3 262.2,205.7 258.7,207.2 255.9,205.4 255.9,200.3 					"/>
				</g>
				<g>
					<g>
						<path class="st91" d="M237.8,208.6c-3.4-1.2-6.6-3.3-9.8-4.9c-0.4-0.2,0-0.8,0.4-0.6c3.2,1.6,6.6,3.2,9.6,5.2
							C238.1,208.4,238,208.7,237.8,208.6L237.8,208.6z"/>
					</g>
				</g>
				<g>
					<g>
						<path class="st92" d="M236,221.5c-2.1-3.4-3.2-7.8-4.3-11.7c-0.1-0.2,0.3-0.3,0.4-0.1c1.3,3.8,3.2,7.7,4.3,11.6
							C236.4,221.6,236.1,221.7,236,221.5L236,221.5z"/>
					</g>
				</g>
				<g>
					<g>
						<path class="st90" d="M259,168.3l-0.5,15.2c-2.8,1.8-6.1,2.1-10,0v-15L259,168.3z"/>
					</g>
					<g>
						<path class="st90" d="M240.6,153.9c0,0-0.1,14.1,0.3,17.5c0.5,4.3,4.1,7,7.5,6.9c4.2-0.1,8.9-1.5,10.2-5.7
							c1.3-4.1-0.3-18.8-0.3-18.8H240.6z"/>
					</g>
					<g>
						<path class="st93" d="M260.1,157.9"/>
					</g>
					<g>
						<g>
							<path class="st92" d="M256.5,174.9c-2,2.6-5.1,4-8.3,3.7c-0.2,0-0.2-0.4,0-0.4C251.4,178.4,254.2,177.2,256.5,174.9
								C256.4,174.8,256.5,174.9,256.5,174.9L256.5,174.9z"/>
						</g>
					</g>
					<g>
						<g>
							<path class="st94" d="M247.2,164.2c0.2,0.8,0.2,1.5,0,2.3c-0.1,0.4-0.3,0.7-0.5,1c-0.6,1.2-0.3,1.8,0.5,2.8
								c0.2,0.2-0.1,0.5-0.3,0.3c-0.6-0.7-1.2-1.5-0.9-2.4c0.1-0.4,0.4-0.7,0.5-1c0.5-0.9,0.7-1.8,0.5-2.9
								C246.9,164.1,247.1,164,247.2,164.2L247.2,164.2z"/>
						</g>
					</g>
					<g>
						<g>
							<path class="st94" d="M250.7,171.8c-0.5,0.6-1,1.2-1.7,1.4c-0.5,0.1-1.2,0-1.4-0.6c-0.1-0.2,0.1-0.3,0.3-0.2
								c0.5,0.3,1,0.4,1.5,0.2c0.5-0.2,0.8-0.6,1.1-1C250.6,171.5,250.8,171.7,250.7,171.8L250.7,171.8z"/>
						</g>
					</g>
					<g>
						<g>
							<path class="st94" d="M243.3,164.6c-0.4,0-0.4-0.6,0-0.6C243.7,164,243.7,164.6,243.3,164.6L243.3,164.6z"/>
						</g>
					</g>
					<g>
						<g>
							<path class="st94" d="M251.4,164.7c-0.4,0-0.4-0.6,0-0.6C251.8,164,251.8,164.7,251.4,164.7L251.4,164.7z"/>
						</g>
					</g>
					<g class="st95">
						<g>
							<path class="st92" d="M250.6,168.1c-0.1,0.8,0.9,1.6,2.2,1.6c1.3,0,2.3-0.8,2.3-1.6c-0.1-0.8-1.1-1.5-2.2-1.5
								C251.7,166.7,250.7,167.3,250.6,168.1z"/>
						</g>
					</g>
					<g class="st95">
						<g>
							<path class="st92" d="M241.1,168.1c0,0.4,0.1,0.8,0.4,1.1c0.3,0.3,0.7,0.5,1.2,0.5c0.5,0,0.9-0.2,1.2-0.5
								c0.3-0.3,0.5-0.7,0.4-1.1c0-0.4-0.2-0.8-0.5-1.1c-0.3-0.3-0.7-0.4-1.1-0.4c-0.4,0-0.8,0.1-1.1,0.4
								C241.4,167.3,241.2,167.6,241.1,168.1z"/>
						</g>
					</g>
					<g>
						<g>
							<path class="st90" d="M258.7,163.2c0,0,4.4-1,4.5,3.4c0.1,4.4-4.5,4.3-4.5,4.3V163.2z"/>
						</g>
						<g>
							<g>
								<path class="st92" d="M260.5,165.3c0.8,0.3,1.2,1.1,1.1,1.9c-0.1,0.7-0.8,1.6-1.6,1.4c-0.3,0-0.3-0.4-0.2-0.6
									c0.3-0.3,0.8-0.4,0.9-0.9c0.2-0.5-0.1-1.1-0.5-1.4C260.1,165.5,260.3,165.2,260.5,165.3L260.5,165.3z"/>
							</g>
						</g>
					</g>
					<g>
						<path class="st79" d="M260.5,158.4c-0.1-0.8-0.3-2.2-1-3.5c0,0,0,0,0,0c-0.1-0.2-0.1-0.4-0.2-0.6c-0.1-0.2-0.2-0.5-0.3-0.8
							c-0.1-0.3-0.3-0.6-0.5-0.9c-0.2-0.3-0.4-0.6-0.6-1c-0.5-0.7-1.1-1.3-1.7-2c-0.7-0.6-1.4-1.2-2.1-1.7c-0.3-0.2-0.7-0.4-1-0.6
							c-0.3-0.2-0.6-0.3-0.9-0.5c-0.3-0.1-0.5-0.2-0.8-0.3c-0.2-0.1-0.4-0.2-0.6-0.2c-0.3-0.1-0.5-0.2-0.5-0.1c0,0,0.2,0.1,0.5,0.2
							c0.2,0.1,0.4,0.1,0.6,0.2c0.2,0.1,0.5,0.2,0.7,0.3c0.3,0.1,0.6,0.3,0.9,0.5c0.3,0.2,0.6,0.4,1,0.6c0.7,0.5,1.4,1,2,1.6
							c0.7,0.6,1.2,1.3,1.7,2c0.2,0.3,0.5,0.6,0.6,0.9c0.2,0.3,0.4,0.6,0.5,0.9c0,0.1,0.1,0.1,0.1,0.2c-1.6-2.9-4.3-5.2-7.5-6.3
							c-0.7-0.3-2-1-2.7-0.2c-0.4,0.5-0.3,1.7,0.4,1.9c-0.8-0.2-1.9-0.7-2.8-1.1c-0.9-0.4-2-0.7-3-0.4c-1,0.3-1.7,1.9-0.5,2.7
							c-0.5-0.1-1,0-1.5,0.1c-0.5,0.1-1,0.2-1.4,0.5c-0.5,0.3-1,0.7-1.4,1.2c-0.4,0.5-0.5,1.2-0.5,1.8c0.1,0.6,0.4,1.1,0.7,1.5
							c0.4,0.4,0.8,0.7,1.2,0.9c0.4,0.2,0.9,0.3,1.3,0.4c0.2,0,0.3,0,0.5,0.1c1.7,0.5,3.6,0.3,5.5,0.3c2.5,0,5-0.4,7.5,0.1
							c1,0.2,2.1,0.5,2.7,1.3c0.1,0.2,0.2,0.3,0.3,0.5l0.4,7.2l2.4-1.5v-2.3C260.7,161,260.7,159.7,260.5,158.4z M240,156.2
							c-0.4-0.2-0.8-0.5-1.2-0.9c-0.3-0.4-0.6-0.9-0.7-1.4c-0.1-0.6,0.1-1.2,0.4-1.6c0.3-0.5,0.8-0.9,1.3-1.1c0,0,0,0,0.1,0
							c-0.5,0.3-0.9,0.8-1.1,1.3c-0.4,1.3,0.1,2.7,1.2,3.5c0,0,0,0.1,0,0.1c0.3,0.2,0.7,0.4,1,0.6
							C240.8,156.5,240.4,156.4,240,156.2z"/>
					</g>
				</g>
			</g>
			<g>
				<g>
					<path class="st96" d="M229.5,206.4c0,0-1.7-3.3-1.8-3.6c-0.1-0.3,1.9-3,1.2-3c-0.7,0-2,1.5-2,1.5s-1.7-4.5-2.3-4
						c-0.6,0.5,0.5,2.9,0.5,2.9s-1.9-3.7-2.3-3.2c-0.5,0.5,1.3,3.4,1.3,3.4s-1.7-2.6-2.4-2.6c-0.7,0,1.2,3.2,1.2,3.2s-2-2.4-2.4-2.3
						c-0.4,0.1,3.1,10,3.1,10L229.5,206.4z"/>
				</g>
			</g>
			<g>
				<g>
					<defs>
						<path id="SVGID_9_" d="M254.9,223.7l2.3-5.7c0,0,0-0.1,0-0.1l1.9-4.7l1.1-2.7l0-0.1l-7.5-3.1c-0.5-0.5-0.5-1.4,0.2-1.9
							c1.7-1.2,2.8-3.2,1.3-5.1c-1.2-1.5-3.5-1.8-5-0.6c-1.2,1-1.1,2.4-0.9,3.8c0.1,0.8-0.5,1.4-1.2,1.4l-7.4-3l0,0.1l-1.2,2.9
							l-1.8,4.4c-0.1,0.8,0.6,1.6,1.5,1.4c2.1-0.4,4.2,0.2,4.5,2.6c0.3,1.9-1.2,3.7-3.2,3.9c-1.6,0.2-2.4-0.8-3.3-1.9
							c-0.6-0.7-1.5-0.7-2,0l-3,7.2l5.2,2.1l0,0l11.2,4.6l0,0l4.2,1.7L254.9,223.7C254.9,223.7,254.9,223.7,254.9,223.7z"/>
					</defs>
					<clipPath id="SVGID_10_">
						<use xlink:href="#SVGID_9_"  style="overflow:visible;"/>
					</clipPath>
					<rect x="231.2" y="198.5" class="st97" width="0.1" height="32.6"/>
					<rect x="231.3" y="198.5" class="st97" width="0.8" height="32.6"/>
					<rect x="232.1" y="198.5" class="st98" width="0.8" height="32.6"/>
					<rect x="232.9" y="198.5" class="st99" width="0.8" height="32.6"/>
					<rect x="233.8" y="198.5" class="st100" width="0.8" height="32.6"/>
					<rect x="234.6" y="198.5" class="st101" width="0.8" height="32.6"/>
					<rect x="235.4" y="198.5" class="st102" width="0.8" height="32.6"/>
					<rect x="236.3" y="198.5" class="st103" width="0.8" height="32.6"/>
					<rect x="237.1" y="198.5" class="st104" width="0.8" height="32.6"/>
					<rect x="237.9" y="198.5" class="st105" width="0.8" height="32.6"/>
					<rect x="238.8" y="198.5" class="st106" width="0.8" height="32.6"/>
					<rect x="239.6" y="198.5" class="st107" width="0.8" height="32.6"/>
					<rect x="240.4" y="198.5" class="st108" width="0.8" height="32.6"/>
					<rect x="241.2" y="198.5" class="st109" width="0.8" height="32.6"/>
					<rect x="242.1" y="198.5" class="st110" width="0.8" height="32.6"/>
					<rect x="242.9" y="198.5" class="st111" width="0.8" height="32.6"/>
					<rect x="243.7" y="198.5" class="st112" width="0.8" height="32.6"/>
					<rect x="244.6" y="198.5" class="st113" width="0.8" height="32.6"/>
					<rect x="245.4" y="198.5" class="st114" width="0.8" height="32.6"/>
					<rect x="246.2" y="198.5" class="st115" width="0.8" height="32.6"/>
					<rect x="247.1" y="198.5" class="st116" width="0.8" height="32.6"/>
					<rect x="247.9" y="198.5" class="st117" width="0.8" height="32.6"/>
					<rect x="248.7" y="198.5" class="st118" width="0.8" height="32.6"/>
					<rect x="249.5" y="198.5" class="st119" width="0.8" height="32.6"/>
					<rect x="250.4" y="198.5" class="st120" width="0.8" height="32.6"/>
					<rect x="251.2" y="198.5" class="st121" width="0.8" height="32.6"/>
					<rect x="252" y="198.5" class="st122" width="0.8" height="32.6"/>
					<rect x="252.9" y="198.5" class="st123" width="0.8" height="32.6"/>
					<rect x="253.7" y="198.5" class="st124" width="0.8" height="32.6"/>
					<rect x="254.5" y="198.5" class="st125" width="0.8" height="32.6"/>
					<rect x="255.4" y="198.5" class="st126" width="0.8" height="32.6"/>
					<rect x="256.2" y="198.5" class="st127" width="0.8" height="32.6"/>
					<rect x="257" y="198.5" class="st128" width="0.8" height="32.6"/>
					<rect x="257.8" y="198.5" class="st129" width="0.8" height="32.6"/>
					<rect x="258.7" y="198.5" class="st130" width="0.8" height="32.6"/>
					<rect x="259.5" y="198.5" class="st131" width="0.8" height="32.6"/>
					<path class="st131" d="M260.3,231.1v-32.6V231.1z"/>
				</g>
			</g>
			<g>
				<g>
					<path class="st84" d="M273.3,189.5c0,0,4.1,5.7,4.6,16c0,0-11.5,4-11.5,3.4s0-12.7,0-12.7S267.2,184.2,273.3,189.5z"/>
				</g>
				<g>
					<g>
						<path class="st91" d="M278.2,205.2c-3.5,1.5-7.4,2.5-11.1,3.6c-0.4,0.1-0.6-0.5-0.2-0.7c3.7-1.1,7.4-2.5,11.1-3.2
							C278.2,204.9,278.3,205.2,278.2,205.2L278.2,205.2z"/>
					</g>
				</g>
				<g>
					<g>
						<path class="st91" d="M267.3,200.5c0.1,3,0.3,6-0.1,9c0,0.3-0.6,0.4-0.6,0c0.1-3,0.4-6,0.3-9
							C267,200.4,267.2,200.4,267.3,200.5L267.3,200.5z"/>
					</g>
				</g>
				<g>
					<path class="st90" d="M270.5,228.3c-2.1-0.3-17.1-6.1-17.1-6.1l2.2-5.9c0,0,10.6,3.7,10.7,3.1c0.1-0.7,1.1-12,1.3-10.9
						l10.2-3.1c0,0-0.7,18.5-4.4,22.1C273.5,227.6,272.7,228.6,270.5,228.3z"/>
				</g>
				<g>
					<g>
						<path class="st96" d="M257.6,216.9c0,0-3.6-0.9-3.9-1.1c-0.3-0.1-0.8-3.5-1.2-3c-0.5,0.5-0.4,2.5-0.4,2.5s-4.4-2.1-4.4-1.3
							c-0.1,0.8,2.4,1.7,2.4,1.7s-4-1.3-3.9-0.7c0,0.7,3.3,1.5,3.3,1.5s-3-0.7-3.6-0.2c-0.5,0.5,3.1,1.4,3.1,1.4s-3.1-0.3-3.4,0
							c-0.3,0.4,9.2,5,9.2,5L257.6,216.9z"/>
					</g>
				</g>
			</g>
		</g>
		<g>
			<path class="st132" d="M210.7,223.7c-1.9-1.5-3.8-0.5-5.1,1.2c-0.6,0.8-1.9,0.6-2.2-0.3l-2.7-6.9l-7.4,2.8c-0.6,0.5-0.6,1.4,0,2
				c1.1,0.9,2.1,1.8,1.9,3.4c-0.2,1.9-2.2,3.3-4.1,3c-2.3-0.4-2.9-2.5-2.5-4.6c0.2-0.8-0.5-1.5-1.3-1.5l-4.7,1.8l-2.7,1l0-0.1
				l-0.1,0l0-0.1l0,0l0.3,0.7l2.7,6.9l2.2,5.7l2.8,7.2l0.1,0.3l0.1,0l1.4-0.5l1.5-0.6l4.4-1.7l6.1-2.4l4.1-1.6l3.2-1.2l-2.7-7
				c-0.4-0.9,0.4-1.9,1.4-1.7c1.4,0.2,2.8,0.4,3.8-0.9C212.4,227.2,212.2,224.9,210.7,223.7z"/>
		</g>
		<g>
			<g>
				<g>
					<path class="st133" d="M173.5,321.3c-1.3-13.3-2.6-26.6-3.8-39.9c-2-21.1-4.1-42.3-6.1-63.4c-0.5-4.8-0.9-9.7-1.4-14.5
						c0-0.3-0.2-0.5-0.6-0.6c-4.4-0.5-8.8-1.1-13.1-1.6c-0.3,0-0.6,0.3-0.6,0.6c0.4,13.4,0.9,26.7,1.3,40.1
						c0.7,21.1,1.3,42.3,2,63.4c0.2,4.8,0.3,9.6,0.5,14.5c0,0.7,1.2,0.8,1.2,0c-0.4-13.4-0.9-26.7-1.3-40.1
						c-0.7-21.1-1.3-42.3-2-63.4c-0.2-4.8-0.3-9.6-0.5-14.5c-0.2,0.2-0.4,0.4-0.6,0.6c4.4,0.5,8.8,1.1,13.1,1.6
						c-0.2-0.2-0.4-0.4-0.6-0.6c1.3,13.3,2.6,26.6,3.8,39.9c2,21.1,4.1,42.3,6.1,63.4c0.5,4.8,0.9,9.7,1.4,14.5
						C172.4,322,173.6,322,173.5,321.3L173.5,321.3z"/>
				</g>
			</g>
			<g>
				<polygon class="st133" points="163.9,224.2 140.4,226.3 140.4,229.2 163.9,227.1 				"/>
			</g>
			<g>
				<g>
					<path class="st133" d="M146.1,226.7c-2,10.3-4,20.6-5.9,31c-3.2,16.5-6.3,33-9.5,49.6c-0.7,3.8-1.5,7.6-2.2,11.3
						c-0.1,0.7,1,1,1.1,0.3c2-10.3,4-20.6,5.9-31c3.2-16.5,6.3-33,9.5-49.6c0.7-3.8,1.5-7.6,2.2-11.3
						C147.4,226.3,146.2,226,146.1,226.7L146.1,226.7z"/>
				</g>
			</g>
			<g>
				<g>
					<path class="st133" d="M140,247.7c8.3,0,16.7,0,25,0c1.2,0,1.3-1.9,0-1.9c-8.3,0-16.7,0-25,0
						C138.7,245.8,138.7,247.7,140,247.7L140,247.7z"/>
				</g>
			</g>
			<g>
				<g>
					<path class="st133" d="M129,288.1c14,0,28,0,42,0c1.2,0,1.3-1.9,0-1.9c-14,0-28,0-42,0C127.8,286.1,127.8,288.1,129,288.1
						L129,288.1z"/>
				</g>
			</g>
			<g>
				<g>
					<path class="st133" d="M133.6,267.4c11.3,0,22.6,0,33.9,0c1.2,0,1.3-1.9,0-1.9c-11.3,0-22.6,0-33.9,0
						C132.4,265.5,132.4,267.4,133.6,267.4L133.6,267.4z"/>
				</g>
			</g>
			<g>
				<g>
					<path class="st80" d="M134,280.5c0,0-1.5,4-1.3,5.2l9.4,1c-0.1-0.2-0.7-1-3-1.2l1.5-3.6C140.5,281.9,136,280.7,134,280.5z"/>
				</g>
			</g>
		</g>
		<g>
			<g>
				<g>
					<path class="st80" d="M117.4,315.1c0,0-1.1,3.8-0.8,5l9.4,0.1c-0.1-0.2-0.7-0.9-3.1-1l0.8-3.9
						C123.8,315.4,119.4,315.1,117.4,315.1z"/>
				</g>
			</g>
			<g>
				<g>
					<g>
						<g>
							<path class="st134" d="M134.9,191.3c-0.6,0.5-1.2,1.1-1.7,1.7c-0.6,0.7-1,1.5-1.5,2.2c-0.1,0.1-0.4,0.1-0.3-0.1
								c0.5-1.6,1.9-3,3.2-4.1C134.8,190.9,135.1,191.1,134.9,191.3L134.9,191.3z"/>
						</g>
					</g>
				</g>
				<g>
					<g>
						<path class="st135" d="M164.5,192.7c0,0-13.5,17.5-18.2,16.4c-3.1-0.7-21.1-16.9-21.1-16.9l7.6-9.3l15.1,15.9l14.1-9.6
							L164.5,192.7z"/>
					</g>
				</g>
				<g>
					<g>
						<path class="st136" d="M132.9,222.8c0,0,7.5,7.8,3.8,33.7c-3.7,25.9-12.4,61.2-12.4,61.2h-7.7c0,0,3.8-28.9,4.6-37.4
							c0.9-8.5,1.6-37.8,1.6-37.8L132.9,222.8z"/>
					</g>
				</g>
				<g>
					<g>
						<path class="st137" d="M162,189.2c0,0,5.4-4.2,6-3.8c0.4,0.3-1.2,1.6-1.2,1.6s4.1-0.2,4.2,0.3c0.1,0.5-4.4,0.7-3.1,0.7
							c1.3,0,3.2,0.1,2.7,0.6c-0.5,0.4-2.5,0.4-2.5,0.4s1.4,0.5,1.3,0.9c-0.1,0.4-2.1-0.3-2.9,0.7c-0.8,1-2,2.3-2,2.3L162,189.2z"/>
					</g>
				</g>
				<g>
					<g>
						<path class="st137" d="M141.6,218.9c0,0,4.9-1,5.2-0.5c0.2,0.3-1.3,0.6-1.3,0.6s2.8,1.2,2.7,1.6c-0.1,0.4-3.1-1-2.3-0.6
							c0.9,0.4,2.1,1.1,1.6,1.3c-0.5,0.1-1.8-0.6-1.8-0.6s0.7,0.8,0.6,1c-0.2,0.2-1.3-0.9-2.1-0.5c-0.9,0.4-2.1,0.8-2.1,0.8
							L141.6,218.9z"/>
					</g>
				</g>
				<g>
					<g>
						<path class="st135" d="M105.4,191.8c-2.8-3.2-2.3-8.2,1.2-10.7c2-1.5,4.5-2.8,7.2-3.1c7.2-0.9,8.4-0.1,8.4-0.1
							s5.3,1.4,9.9,4.4c3.6,2.4,4.3,7.4,1.5,10.7l-1.2,1.4c-0.7,0.8-1.2,1.8-1.4,2.8l-3.5,13.2c0,0.1-0.1,0.1-0.2,0.1l-9,0.1
							c-3.3,0-6.2-2.2-7.1-5.3l-2.3-8.4c-0.3-1-0.8-2-1.5-2.8L105.4,191.8z"/>
					</g>
				</g>
				<g>
					<g>
						<path class="st136" d="M127.3,210.6c0,0,6.4,9.9,6.6,13.7c0.1,0.9-11.2,18.9-11.2,18.9s-0.1-4.9-1.2-4.5c-1.2,0.4-1,2.5-1,2.5
							l-12.4-16.9l5.6-13.7L127.3,210.6z"/>
					</g>
				</g>
				<g>
					<g>
						<path class="st135" d="M142.6,218.8c0,0-27.4-0.6-33-23.3l-5.7-10.7c0,0-8.3,34.6,25,38.4c0,0,8.4,1.1,13.3-1.1L142.6,218.8z"
							/>
					</g>
				</g>
				<g>
					<g>
						<g>
							<path class="st138" d="M130.7,197.3c1.2-3.5,1.9-6.9,2.3-10.6c0-0.4,0.7-0.5,0.7,0c-0.2,3.7-1.1,7.4-2.6,10.8
								C131,197.7,130.6,197.5,130.7,197.3L130.7,197.3z"/>
						</g>
					</g>
				</g>
				<g>
					<g>
						<g>
							<path class="st138" d="M147.7,198.7c-0.5,1.3-0.6,2.9-1.5,4c-0.1,0.2-0.5,0-0.4-0.2c0.1-0.6,0.4-1.2,0.6-1.8
								c0.3-0.7,0.7-1.4,1-2.1C147.5,198.4,147.8,198.5,147.7,198.7L147.7,198.7z"/>
						</g>
					</g>
				</g>
				<g>
					<g>
						<g>
							<path class="st138" d="M148.2,198.5c0.1,1.4,0.5,3.1,0.2,4.6c-0.1,0.3-0.4,0.2-0.5,0c-0.4-1.4,0-3.1,0-4.6
								C147.8,198.3,148.2,198.3,148.2,198.5L148.2,198.5z"/>
						</g>
					</g>
				</g>
				<g>
					<g>
						<g>
							<path class="st139" d="M121.5,236c0.4-4.4,0.5-8.8,0.6-13.2c0-0.4,0.6-0.4,0.6,0c0.3,4.4,0,8.9-0.7,13.3
								C121.9,236.3,121.4,236.2,121.5,236L121.5,236z"/>
						</g>
					</g>
				</g>
				<g>
					<g>
						<g>
							<path class="st139" d="M110.3,223.7c2.2-0.3,3.6-1.6,4.9-3.3c0.2-0.3,0.5,0.1,0.4,0.3c-1,1.9-3.2,3-5.3,3.2
								C110.1,224,110.1,223.8,110.3,223.7L110.3,223.7z"/>
						</g>
					</g>
				</g>
				<g>
					<g>
						<g>
							<path class="st138" d="M118.8,211c-6.9-5.9-10.2-15-8.5-24c0.1-0.5,0.9-0.3,0.8,0.2c-1.3,8.9,1.5,17.2,8,23.4
								C119.4,210.9,119.1,211.2,118.8,211L118.8,211z"/>
						</g>
					</g>
				</g>
				<g>
					<g>
						<g>
							<path class="st140" d="M130.7,181.7c-7.8,2.6-16.3,2.3-24.1,0c-0.6-0.2-0.3-1.1,0.3-0.9c8.1,2.4,15.6,2.3,23.8,0.6
								C130.8,181.4,130.9,181.7,130.7,181.7L130.7,181.7z"/>
						</g>
					</g>
				</g>
				<g>
					<g>
						<g>
							<path class="st140" d="M132.7,183.1c-9.1,4.1-19,3.9-28.2,0.6c-0.5-0.2-0.3-0.9,0.2-0.7c9.2,3.6,18.6,3.1,27.9-0.3
								C132.8,182.6,133,183,132.7,183.1L132.7,183.1z"/>
						</g>
					</g>
				</g>
				<g>
					<g>
						<g>
							<path class="st140" d="M128.4,206.5c-4.1,0.3-8.3,0.3-12.4,0.3c-0.4,0-0.4-0.6,0-0.6c4.1-0.1,8.3-0.3,12.4-0.2
								C128.7,206.1,128.7,206.5,128.4,206.5L128.4,206.5z"/>
						</g>
					</g>
				</g>
				<g>
					<g>
						<g>
							<path class="st140" d="M129.1,204.4c-5,0-10-0.3-15-0.5c-0.4,0-0.4-0.6,0-0.6c5,0.2,10,0.3,15,0.8
								C129.3,204.1,129.3,204.4,129.1,204.4L129.1,204.4z"/>
						</g>
					</g>
				</g>
				<g>
					<g>
						<g>
							<path class="st140" d="M131.6,217c-1.1,2.1-1.8,3.7-1.5,6.1c0,0.2-0.4,0.3-0.4,0.1c-0.4-2.3,0.2-4.6,1.7-6.4
								C131.5,216.7,131.7,216.9,131.6,217L131.6,217z"/>
						</g>
					</g>
				</g>
				<g>
					<g>
						<g>
							<path class="st140" d="M129.4,216.1c-0.3,1-0.9,2-1.2,3c-0.3,1.2-0.2,2.3-0.2,3.6c0,0.3-0.4,0.4-0.5,0.1
								c-0.8-1.9,0.1-5.5,1.6-6.9C129.3,215.8,129.5,215.9,129.4,216.1L129.4,216.1z"/>
						</g>
					</g>
				</g>
				<g>
					<g>
						<path class="st141" d="M118.9,149.3c1.3-1.3,2.4-1.5,3.7-1.6c1.2-0.1,2.5,0.4,3.6,0.9c1.1,0.5,2.3,1.1,3.5,1.3
							c0.9,0.2,1.9,0.1,2.8,0.5c1,0.4,1.8,1.4,2.2,2.4c0.4,1.1,0.4,2.2,0.3,3.3c-0.1,1.2-0.5,2.4-0.3,3.5c0.2,1.4,1.2,2.5,2,3.7
							c0.8,1.2,1.5,2.6,1.1,4c-0.4,1.4-1.8,2.4-1.9,3.8c-0.1,1,0.4,2,0.5,3c0,1.5-1,2.8-2.3,3.4c-1.3,0.6-2.9,0.6-4.3,0.3
							c-4.5-0.8-8.5-4.2-10-8.5c-1.1-3-1-6.3-0.7-9.5c0.3-3.2,0.9-6.4,0.7-9.6"/>
					</g>
					<g>
						<path class="st141" d="M121.1,150.5c-1-0.2-0.6-0.8-1.3-1.5c-1.6-1.4-3.5-1.7-4.7-1c-1.2,0.7-1.9,2.2-2,3.6
							c0,1.3,0.4,2.7-0.1,3.8c-0.6,1.2-1.9,1.7-2.8,2.8c-0.9,1.1-1,2.8-0.2,4.1c0.7,1.1,1.9,1.8,2.1,3.1c0.2,1.3-0.9,2.3-1.3,3.5
							c-0.3,1.1,0,2.4,0.7,3.2c0.8,0.8,2,1.2,3.2,0.9L121.1,150.5z"/>
					</g>
					<g>
						<path class="st137" d="M114.2,164.8l0.5,14.1c2.6,1.7,5.6,1.9,9.2,0V165L114.2,164.8z"/>
					</g>
					<g>
						<path class="st137" d="M131.4,151.5c0,0,0.1,13.1-0.3,16.3c-0.5,4-3.8,6.5-7,6.4c-3.9-0.1-8.3-1.4-9.4-5.3
							c-1.2-3.8,0.3-17.4,0.3-17.4H131.4z"/>
					</g>
					<g>
						<path class="st141" d="M114.5,162.3c-0.1-1.7,0-3.6,0.2-5.4c0.1-0.8,0-2.2,0.5-2.9c0.6-0.9,1.7-1.2,2.8-1.4
							c2.6-0.4,5.2-0.1,7.8-0.1c2.6,0,5.2,0.4,7.3-1.1l-14.8-2.6l-4.3,1.4l-0.9,10.2L114.5,162.3z"/>
					</g>
					<g>
						<path class="st93" d="M113.3,155.2"/>
					</g>
					<g>
						<g>
							<path class="st137" d="M114.5,160.1c0,0-4.1-0.9-4.2,3.1c-0.1,4.1,4.2,4,4.2,4V160.1z"/>
						</g>
						<g>
							<g>
								<path class="st92" d="M112.9,162.1c-0.7,0.3-1.2,1-1,1.8c0.1,0.7,0.7,1.4,1.5,1.3c0.3,0,0.3-0.4,0.2-0.6
									c-0.3-0.3-0.7-0.4-0.8-0.8c-0.2-0.5,0.1-1,0.5-1.3C113.3,162.3,113.1,162,112.9,162.1L112.9,162.1z"/>
							</g>
						</g>
					</g>
					<g>
						<path class="st141" d="M116.1,151.3c0.8,0,1.3,0.8,1.9,1.4c1.2,1.4,3.2,2.2,5.1,2.1c0.7-0.1,1.5-0.3,2.2-0.3
							c0.7-0.1,1.5,0.1,2.1,0.5c0.8,0.7,1,1.9,1.8,2.5c0.6,0.4,2.1,1.7,2.8,1.5c0.8-0.2,1.5-1,1.7-1.7c0.1-0.3-0.6-6.4-0.6-6.4
							l-4.1-0.3L116.1,151.3z"/>
					</g>
					<g>
						<g>
							<path class="st92" d="M116.6,171c1.8,2.4,4.7,3.7,7.7,3.4c0.2,0,0.2-0.4,0-0.3C121.4,174.2,118.7,173.1,116.6,171
								C116.6,171,116.6,171,116.6,171L116.6,171z"/>
						</g>
					</g>
					<g>
						<path class="st141" d="M114.2,159.9c0.4,0.4,1,0.5,1.5,0.4c0.5-0.1,1-0.4,1.5-0.8c1.8-1.6,2.3-4.2,2.3-6.6
							c0-0.4,0-0.9-0.3-1.3c-0.3-0.5-0.9-0.7-1.4-0.7c-1.2-0.1-2.3,0.6-3,1.5c-0.7,0.9-1,2.1-1.1,3.3c-0.1,1.2,0.1,2.3,0.2,3.5"/>
					</g>
					<g>
						<g>
							<path class="st94" d="M125.3,161.1c-0.2,0.7-0.2,1.4,0,2.1c0.1,0.3,0.3,0.6,0.5,0.9c0.5,1.1,0.3,1.7-0.4,2.6
								c-0.2,0.2,0.1,0.5,0.3,0.3c0.5-0.6,1.1-1.4,0.9-2.2c-0.1-0.4-0.3-0.6-0.5-1c-0.5-0.9-0.7-1.7-0.5-2.7
								C125.5,161,125.3,160.9,125.3,161.1L125.3,161.1z"/>
						</g>
					</g>
					<g>
						<g>
							<path class="st94" d="M122,168.2c0.4,0.5,0.9,1.1,1.6,1.3c0.5,0.1,1.1,0,1.3-0.5c0.1-0.1-0.1-0.2-0.2-0.2
								c-0.5,0.2-0.9,0.4-1.4,0.1c-0.4-0.2-0.7-0.6-1-0.9C122,167.8,121.8,168,122,168.2L122,168.2z"/>
						</g>
					</g>
					<g>
						<g>
							<path class="st94" d="M128.8,161.5c0.4,0,0.4-0.6,0-0.6C128.4,160.9,128.4,161.5,128.8,161.5L128.8,161.5z"/>
						</g>
					</g>
					<g>
						<g>
							<path class="st94" d="M121.3,161.5c0.4,0,0.4-0.6,0-0.6C120.9,160.9,120.9,161.5,121.3,161.5L121.3,161.5z"/>
						</g>
					</g>
					<g class="st95">
						<g>
							<path class="st92" d="M122.1,164.7c0.1,0.8-0.8,1.5-2.1,1.5c-1.2,0-2.1-0.7-2.1-1.5c0.1-0.8,1-1.4,2.1-1.4
								C121.1,163.4,122,163.9,122.1,164.7z"/>
						</g>
					</g>
					<g class="st95">
						<g>
							<path class="st92" d="M130.8,164.7c0,0.4-0.1,0.8-0.4,1c-0.3,0.3-0.7,0.5-1.1,0.5c-0.5,0-0.9-0.2-1.1-0.4
								c-0.3-0.3-0.4-0.6-0.4-1c0-0.4,0.2-0.7,0.5-1c0.3-0.2,0.6-0.4,1-0.4c0.4,0,0.7,0.1,1,0.4
								C130.6,163.9,130.8,164.3,130.8,164.7z"/>
						</g>
					</g>
					<g>
						<path class="st141" d="M113.8,153.1c-0.4-1-1.1-1.9-2-2.5c-0.9-0.6-2.1-0.8-3.1-0.4c-1,0.4-1.8,1.3-1.9,2.4
							c0,1.1,0.6,2.1,1.6,2.5c0.9,0.5,2.1,0.5,3.1,0.3c1-0.3,1.9-0.8,2.8-1.4"/>
					</g>
					<g>
						<g>
							<path class="st141" d="M104.7,156.3c0,0,0.1,0,0.4,0c0.3,0,0.6,0.1,1.1,0.2c0.9,0.1,2.1,0.3,3.5,0.1c1.4-0.2,2.5-0.9,3.1-1.6
								c0.6-0.7,0.8-1.2,0.8-1.2c0,0,0,0,0,0.1c0,0.1,0,0.2-0.1,0.3c-0.1,0.2-0.3,0.6-0.6,0.9c-0.6,0.7-1.7,1.4-3.1,1.6
								c-1.4,0.2-2.7,0-3.5-0.1c-0.4-0.1-0.8-0.2-1.1-0.2C104.9,156.3,104.7,156.3,104.7,156.3z"/>
						</g>
					</g>
					<g>
						<g>
							<path class="st141" d="M106.5,158.6c0,0,0.1,0,0.3-0.1c0.2-0.1,0.5-0.2,0.9-0.3c0.7-0.2,1.7-0.5,2.8-1.1
								c1-0.6,1.8-1.3,2.3-1.9c0.5-0.6,0.6-1.1,0.6-1.1c0,0,0,0.1-0.1,0.3c-0.1,0.2-0.2,0.5-0.4,0.8c-0.4,0.6-1.2,1.4-2.3,2
								c-1,0.6-2.1,0.9-2.8,1.1c-0.4,0.1-0.7,0.2-0.9,0.2C106.7,158.6,106.5,158.6,106.5,158.6z"/>
						</g>
					</g>
					<g>
						<g>
							<path class="st141" d="M119.2,153.2c0,0,0.1,0.1,0.2,0.4c0.1,0.2,0.2,0.6,0.3,1c0.1,0.9,0.1,2.2-0.5,3.5
								c-0.3,0.6-0.7,1.2-1.1,1.6c-0.4,0.4-1,0.6-1.4,0.7c-0.4,0.1-0.8,0-1.1,0c-0.1,0-0.2-0.1-0.3-0.1c-0.1,0-0.1,0-0.1,0
								c0,0,0.1,0,0.4,0.1c0.2,0,0.6,0.1,1,0c0.4-0.1,0.9-0.3,1.3-0.7c0.4-0.4,0.8-0.9,1.1-1.5c0.6-1.2,0.6-2.5,0.5-3.4
								C119.4,153.8,119.2,153.2,119.2,153.2z"/>
						</g>
					</g>
					<g>
						<g>
							<path class="st141" d="M136.7,166.3C136.7,166.3,136.6,166.3,136.7,166.3c-0.1-0.1-0.2-0.1-0.3-0.2c-0.2-0.1-0.5-0.3-0.8-0.6
								c-0.3-0.3-0.6-0.7-0.8-1.3c-0.2-0.6-0.3-1.3-0.2-2c0.1-0.8,0.5-1.5,0.9-2.3c0.2-0.4,0.4-0.8,0.6-1.2c0.2-0.4,0.3-0.9,0.4-1.4
								c0.1-1,0.1-2-0.3-3c-0.2-0.5-0.5-1-0.8-1.4c-0.4-0.4-0.9-0.7-1.4-0.8c-1.1-0.3-2.3,0-3.3-0.3c-0.5-0.2-1-0.5-1.4-0.8
								c-0.4-0.3-0.8-0.7-1.1-1.1c-0.3-0.4-0.7-0.7-1-1c-0.4-0.3-0.7-0.6-1.1-0.8c-0.8-0.4-1.6-0.6-2.3-0.7c-0.7-0.1-1.4,0-2,0.2
								c-0.6,0.1-1,0.4-1.4,0.6c-0.4,0.2-0.6,0.4-0.8,0.5c-0.1,0.1-0.2,0.1-0.2,0.2c0,0-0.1,0.1-0.1,0c0,0,0,0,0.1-0.1
								c0,0,0.1-0.1,0.2-0.2c0.2-0.1,0.4-0.3,0.8-0.5c0.4-0.2,0.8-0.4,1.4-0.6c0.6-0.2,1.3-0.3,2-0.2c0.8,0.1,1.6,0.3,2.4,0.7
								c0.4,0.2,0.8,0.5,1.1,0.8c0.4,0.3,0.7,0.7,1,1c0.3,0.4,0.7,0.7,1.1,1.1c0.4,0.3,0.8,0.6,1.3,0.8c1,0.3,2.2,0.1,3.3,0.3
								c0.6,0.1,1.1,0.5,1.5,0.9c0.4,0.4,0.7,0.9,0.9,1.4c0.4,1,0.5,2.1,0.3,3.1c-0.1,0.5-0.2,1-0.4,1.4c-0.2,0.4-0.4,0.8-0.6,1.2
								c-0.4,0.8-0.8,1.5-0.9,2.2c-0.1,0.7,0,1.4,0.2,2c0.2,0.6,0.5,1,0.8,1.3C136.2,166.1,136.7,166.2,136.7,166.3z"/>
						</g>
					</g>
					<g>
						<g>
							<path class="st141" d="M112.1,166.7C112.1,166.7,112.1,166.7,112.1,166.7c0,0.1,0,0.2,0,0.3c0,0.2-0.1,0.5-0.4,0.8
								c-0.2,0.3-0.6,0.6-0.9,0.9c-0.4,0.3-0.7,0.8-0.8,1.3c-0.2,0.5-0.2,1.1,0,1.5c0.1,0.5,0.4,0.8,0.6,1.1
								c0.5,0.6,0.9,0.7,0.9,0.7c0,0-0.1,0-0.3-0.1c-0.2-0.1-0.4-0.3-0.7-0.6c-0.3-0.3-0.5-0.7-0.6-1.1c-0.1-0.5-0.1-1.1,0-1.6
								c0.2-0.6,0.5-1,0.9-1.3c0.4-0.3,0.7-0.6,0.9-0.9c0.2-0.3,0.3-0.6,0.4-0.8C112.1,166.8,112.1,166.7,112.1,166.7z"/>
						</g>
					</g>
					<g>
						<g>
							<path class="st141" d="M107.8,171.8c0,0,0-0.1,0-0.3c0-0.2,0-0.4,0.1-0.7c0.2-0.6,0.6-1.4,1.4-1.9c0.4-0.3,0.8-0.4,1.2-0.6
								c0.4-0.2,0.7-0.3,0.9-0.5c0.5-0.4,0.6-0.7,0.7-0.7c0,0,0,0.1-0.1,0.2c-0.1,0.1-0.2,0.3-0.5,0.5c-0.2,0.2-0.6,0.4-0.9,0.6
								c-0.4,0.2-0.8,0.4-1.1,0.6c-0.8,0.5-1.2,1.3-1.3,1.8C107.8,171.4,107.9,171.8,107.8,171.8z"/>
						</g>
					</g>
					<g>
						<g>
							<path class="st141" d="M136.7,164.4c0,0,0,0,0.1,0.1c0.1,0.1,0.2,0.2,0.3,0.3c0.3,0.3,0.6,0.8,0.7,1.5c0,0.4,0,0.7-0.2,1.1
								c-0.2,0.4-0.4,0.7-0.7,1.1c-0.2,0.4-0.4,0.8-0.3,1.3c0.1,0.5,0.5,0.9,0.8,1.3c0.3,0.4,0.5,1,0.5,1.5c0,0.5,0,1-0.2,1.4
								c-0.3,0.9-0.9,1.5-1.4,1.9c-0.6,0.4-1.1,0.6-1.5,0.8c-0.2,0.1-0.3,0.1-0.4,0.1c-0.1,0-0.2,0-0.2,0c0,0,0.2-0.1,0.6-0.2
								c0.4-0.1,0.9-0.4,1.4-0.8c0.5-0.4,1.1-1,1.4-1.9c0.1-0.4,0.2-0.9,0.2-1.4c0-0.5-0.2-1-0.5-1.4c-0.3-0.4-0.6-0.8-0.8-1.3
								c-0.1-0.2-0.1-0.5,0-0.8c0.1-0.2,0.2-0.5,0.3-0.7c0.2-0.4,0.5-0.7,0.7-1.1c0.2-0.4,0.2-0.7,0.2-1.1c0-0.7-0.4-1.2-0.6-1.5
								C136.9,164.5,136.7,164.4,136.7,164.4z"/>
						</g>
					</g>
				</g>
				<g>
					<path class="st84" d="M108.2,224.3c0,0,38.4,1.7,40,13.2c1.9,13.5-7.1,44.8-7.1,44.8l-9.4-1c0,0,6.7-35.8,3.6-38.1
						c-3.1-2.2-22.1,0-26.1-5.1C105.1,233.1,108.2,224.3,108.2,224.3z"/>
				</g>
			</g>
		</g>
		<g>
			<g>
				<rect x="168.7" y="155.7" class="st73" width="34.5" height="33.6"/>
			</g>
			<g>
				<path class="st74" d="M192.4,164.9v14.7c0,0.3-0.3,0.6-0.5,0.6h-1c-0.4,0-0.8-0.2-1.1-0.7l-0.5-1.1c-1.1,1.2-2.6,2.1-4.7,2.1
					c-4.8,0-7.4-3.6-7.4-8.2c0-4.6,2.6-8.3,7.4-8.3c1.9,0,3.3,0.8,4.4,1.9l0.8-1c0.2-0.3,0.6-0.6,0.9-0.6h1.2
					C192.2,164.3,192.4,164.6,192.4,164.9z M189.4,172.3c0-3.3-0.8-5.7-4.5-5.7c-2.9,0-4.5,2.2-4.5,5.7c0,3.4,1.8,5.7,4.5,5.7
					C188.4,178,189.4,175.8,189.4,172.3z"/>
			</g>
		</g>
		<g>
			<g>
				<path class="st80" d="M336.8,220.7c6.4,0.4,9.4,8,9.7,13.2c0.2,2.8-0.4,6.1,1.6,8.2c1.6,1.8,4.3,2,6,3.7c2,2,1.5,5.9-0.9,7.3
					c2.7,1.9,3.6,6,2.1,9c-1.5,3-5.1,4.7-8.4,4.3c-3.3-0.4-6.3-2.8-7.6-5.9c-2.2,2.3-5.7,3.4-8.8,2.6c-3.1-0.8-5.7-3.3-6.6-6.4
					c-0.9-3.1,0.1-6.6,2.4-8.9c-1-3-0.3-6.3,1.1-9c1.4-2.8,3.4-5.2,5.2-7.8c1.8-2.6,3.3-5.4,3.6-8.5c0.3,0.1,0.6,0.1,0.8,0.2"/>
			</g>
			<g>
				<g>
					<g>
						<path class="st142" d="M346.7,309.4c0,0-16.6-1.5-16.6-0.9c0,0.6,7,9.4,7,9.4l9.9-0.4L346.7,309.4z"/>
					</g>
					<g>
						<path class="st143" d="M346.7,308.6c0,0,4,0,6.1-0.1l0.5,13.8c-0.3-0.1-1.3-1-1.4-4.3l-4.8,0.8
							C347.2,318.8,346.7,311.4,346.7,308.6z"/>
					</g>
				</g>
				<g>
					<g>
						<path class="st142" d="M358.8,314.5c0,0-16.6-1.5-16.6-0.9c0,0.6,7,9.4,7,9.4l9.9-0.4L358.8,314.5z"/>
					</g>
					<g>
						<path class="st143" d="M358.8,313.7c0,0,4,0,6.1-0.1l0.5,13.8c-0.3-0.1-1.3-1-1.4-4.3l-4.8,0.8
							C359.2,324,358.8,316.5,358.8,313.7z"/>
					</g>
				</g>
				<g>
					<path class="st79" d="M340.8,283.1c0,0,7,16.1,4,29.5l10.4,10.5h-49.4c-3.7,0-7.3-2-9-5.3c-1.1-2.3-1.5-5.3,0.3-9
						c4.7-9.4,26.3-27.1,26.3-27.1L340.8,283.1z"/>
				</g>
				<g>
					<path class="st142" d="M323.6,268.9c-2.8,8.7-9.8,18-26.6,19.9c0,0-8.4,1.1-13.3-1.1l-0.4-3.3c0,0,27.4-0.6,33.1-23.4"/>
				</g>
				<g class="st144">
					<path class="st145" d="M322.5,271.8c0-0.1-4.4-7.2-6.7-8.9l0.8-2.3l6.3,6.9l0.5,3.2L322.5,271.8z"/>
				</g>
				<g>
					<path class="st146" d="M352.6,259c0,0-5.8-7.7-12.9-8.6c-7.2-0.9-8.4,0-8.4,0s-11.9,3.1-15.4,10.3l6.3,7.5l4,14.9h14.7
						l4.2-15.4L352.6,259z"/>
				</g>
				<g>
					<g>
						<path class="st142" d="M309.1,271.1c0,0,13.5,17.5,18.2,16.4c1.6-0.4,8.1-4.2,14-7.8c6.6-4,10.8-11.1,11.2-18.9l0.1-1.9
							l-26.9,18.2l-14.2-9.6L309.1,271.1z"/>
					</g>
					<g>
						<path class="st142" d="M311.5,267.5c0,0-5.4-4.2-6-3.8c-0.4,0.3,1.2,1.6,1.2,1.6s-4.1-0.2-4.2,0.3c-0.1,0.5,4.4,0.7,3.1,0.7
							c-1.3,0-3.2,0.1-2.7,0.6c0.5,0.4,2.5,0.4,2.5,0.4s-1.4,0.5-1.3,0.9c0.1,0.4,2.1-0.3,2.9,0.7c0.8,1,2,2.3,2,2.3L311.5,267.5z"
							/>
					</g>
				</g>
				<g>
					<g>
						<path class="st145" d="M321.3,274.2c-2.8-1.7-5.4-3.6-8.1-5.4c-0.2-0.1,0-0.4,0.2-0.3c2.7,1.8,5.4,3.6,8,5.6
							C321.5,274.1,321.4,274.2,321.3,274.2L321.3,274.2z"/>
					</g>
				</g>
				<g>
					<g>
						<path class="st145" d="M317,280.6c-3.4-3.9-6.8-7.7-10.1-11.6c-0.1-0.1,0.1-0.4,0.2-0.2c3.3,4,6.8,7.7,9.9,11.7
							C317.2,280.5,317.1,280.6,317,280.6L317,280.6z"/>
					</g>
				</g>
				<g>
					<g>
						<path class="st90" d="M340.6,237.5l-0.5,14.7c-2.7,1.7-5.9,2-9.6,0v-14.4L340.6,237.5z"/>
					</g>
					<g>
						<path class="st90" d="M324.9,223.7c-1.2,0-2.1,0.9-2.1,2.1c0,4,0,12.3,0.3,14.8c0.5,4.2,4,6.7,7.2,6.7c4-0.1,8.6-1.5,9.8-5.5
							c1.2-4-0.3-18.1-0.3-18.1H324.9z"/>
					</g>
					<g>
						<path class="st93" d="M341.6,227.5"/>
					</g>
					<g>
						<g>
							<path class="st90" d="M340.3,232.6c0,0,4.2-1,4.3,3.3c0.1,4.2-4.3,4.1-4.3,4.1V232.6z"/>
						</g>
						<g>
							<g>
								<path class="st92" d="M342.1,234.6c0.8,0.3,1.2,1.1,1.1,1.9c-0.1,0.7-0.8,1.5-1.5,1.4c-0.3,0-0.3-0.4-0.2-0.6
									c0.3-0.3,0.7-0.4,0.9-0.9c0.2-0.5-0.1-1-0.5-1.4C341.6,234.9,341.8,234.5,342.1,234.6L342.1,234.6z"/>
							</g>
						</g>
					</g>
					<g>
						<g>
							<path class="st92" d="M338.2,244c-1.9,2.5-4.9,3.8-8,3.6c-0.2,0-0.2-0.4,0-0.4C333.2,247.3,336,246.1,338.2,244
								C338.1,243.9,338.2,243.9,338.2,244L338.2,244z"/>
						</g>
					</g>
					<g>
						<g>
							<path class="st94" d="M329.2,233.6c0.2,0.7,0.2,1.5,0,2.2c-0.1,0.4-0.3,0.6-0.5,1c-0.6,1.2-0.3,1.8,0.4,2.7
								c0.2,0.2-0.1,0.5-0.3,0.3c-0.6-0.6-1.1-1.4-0.9-2.3c0.1-0.4,0.3-0.7,0.5-1c0.5-0.9,0.7-1.8,0.5-2.8
								C328.9,233.5,329.1,233.4,329.2,233.6L329.2,233.6z"/>
						</g>
					</g>
					<g>
						<g>
							<path class="st94" d="M332.6,241c-0.4,0.5-0.9,1.1-1.6,1.3c-0.5,0.1-1.2,0-1.4-0.5c-0.1-0.1,0.1-0.2,0.2-0.2
								c0.5,0.3,0.9,0.4,1.5,0.1c0.4-0.2,0.8-0.6,1.1-0.9C332.5,240.6,332.7,240.8,332.6,241L332.6,241z"/>
						</g>
					</g>
					<g>
						<g>
							<path class="st94" d="M325.5,234c-0.4,0-0.4-0.6,0-0.6C325.9,233.4,325.9,234,325.5,234L325.5,234z"/>
						</g>
					</g>
					<g>
						<g>
							<path class="st94" d="M333.3,234c-0.4,0-0.4-0.6,0-0.6C333.6,233.4,333.6,234,333.3,234L333.3,234z"/>
						</g>
					</g>
					<g class="st95">
						<g>
							<path class="st92" d="M332.5,237.4c-0.1,0.8,0.9,1.6,2.1,1.6c1.3,0,2.2-0.7,2.2-1.5c-0.1-0.8-1-1.4-2.1-1.4
								C333.5,236,332.5,236.6,332.5,237.4z"/>
						</g>
					</g>
					<g class="st95">
						<g>
							<path class="st92" d="M323.3,237.3c0,0.4,0.1,0.8,0.4,1.1c0.3,0.3,0.7,0.5,1.2,0.5c0.5,0,0.9-0.2,1.2-0.5
								c0.3-0.3,0.4-0.7,0.4-1.1c0-0.4-0.2-0.8-0.5-1c-0.3-0.3-0.6-0.4-1-0.4c-0.4,0-0.8,0.1-1,0.4
								C323.6,236.6,323.4,236.9,323.3,237.3z"/>
						</g>
					</g>
					<g>
						<path class="st80" d="M324.1,221.9c-2.7,2.7-2.8,6.1-1.5,9.7c3.2-0.5,2.5-0.4,5.6-0.8l0.1-2.7c0.1,1.2,0.5,2.4,1.7,2.9
							c0.6,0.3,1.4,0.2,1.9-0.3c0.7-0.6,1.1-1.4,1-2.6c0.6,1.2,0.4,2.4,1.6,2.9c1.2,0.5,2.5,0.7,3.8,0.8c0.7,0.1,1.4,0.2,1.9-0.2
							c0.7-0.5,0.8-1.4,0.8-2.2c0.1-1.5,0.2-2.9-0.1-4.4c-0.3-1.4-1-2.9-2.2-3.7c-1.1-0.7-2.5-0.9-3.9-1c-3-0.2-5.8-0.1-8.8,0.3
							C325.4,220.9,324.7,221.3,324.1,221.9L324.1,221.9z"/>
					</g>
				</g>
				<g>
					<g>
						<polygon class="st147" points="267.6,287.6 256.1,264.4 284,264.4 294.6,286.3 315.7,286.1 315.7,287.4 						"/>
					</g>
				</g>
			</g>
			<g>
				<g>
					<path class="st80" d="M351.4,240.3c0,0,0-0.1,0.2-0.3c0.1-0.2,0.4-0.4,0.9-0.4c0.2,0,0.5,0,0.7,0.1c0.2,0.1,0.5,0.3,0.6,0.6
						c0.3,0.5,0.4,1.3-0.1,2c-0.4,0.7-1.3,1.1-2.2,1.1c-0.9,0-1.9-0.3-2.7-0.8c-0.9-0.5-1.6-1.4-2-2.4c-0.5-1-0.6-2.2-0.7-3.3
						c-0.1-1.2-0.1-2.3-0.2-3.4c-0.1-1.1-0.3-2.1-0.5-3.1c-0.4-2-1.1-3.6-1.9-4.9c-0.8-1.3-1.6-2.2-2.3-2.7
						c-0.3-0.3-0.6-0.5-0.8-0.6c-0.2-0.1-0.3-0.2-0.3-0.2c0,0,0.1,0.1,0.3,0.2c0.2,0.1,0.5,0.3,0.8,0.6c0.7,0.5,1.5,1.4,2.3,2.7
						c0.8,1.3,1.5,3,1.9,5c0.2,1,0.4,2,0.5,3.1c0.1,1.1,0.2,2.2,0.2,3.4c0.1,1.1,0.3,2.3,0.7,3.3c0.4,1,1.1,1.8,2,2.3
						c0.8,0.5,1.8,0.8,2.6,0.8c0.9,0,1.7-0.4,2.1-1c0.4-0.6,0.4-1.4,0.1-1.9c-0.1-0.3-0.4-0.4-0.6-0.5c-0.2-0.1-0.5-0.1-0.7-0.1
						c-0.4,0-0.7,0.2-0.9,0.4C351.4,240.2,351.4,240.3,351.4,240.3z"/>
				</g>
			</g>
			<g>
				<g>
					<path class="st80" d="M353.2,262.1c0,0,0.2-0.1,0.7-0.3c0.4-0.2,1-0.5,1.6-1.2c0.5-0.7,1-1.6,1-2.8c-0.1-1.2-0.7-2.5-1.8-3.3
						l-0.1-0.1l0.1-0.1c0.6-0.4,1.2-0.9,1.7-1.5c0.5-0.6,0.9-1.3,1.2-2.1c0.3-0.9,0.3-2,0-2.8c-0.3-0.9-0.9-1.6-1.6-2.1
						c-1.4-1-3-1.4-4.2-1.8c-1.3-0.4-2.3-0.8-2.9-1.1c-0.3-0.2-0.6-0.4-0.7-0.5c-0.2-0.1-0.2-0.2-0.2-0.2c0,0,0.3,0.3,1,0.6
						c0.6,0.4,1.6,0.7,2.9,1.1c1.3,0.4,2.8,0.7,4.3,1.8c0.7,0.5,1.4,1.2,1.7,2.2c0.3,0.9,0.3,2,0,3c-0.2,0.8-0.7,1.6-1.2,2.2
						c-0.5,0.6-1.1,1.1-1.8,1.5l0-0.2c1.2,0.8,1.8,2.2,1.9,3.4c0.1,1.2-0.5,2.2-1,2.9c-0.6,0.7-1.2,1-1.7,1.2
						c-0.2,0.1-0.4,0.1-0.5,0.2C353.3,262.1,353.2,262.1,353.2,262.1z"/>
				</g>
			</g>
			<g>
				<g>
					<path class="st80" d="M322.4,233.2c0,0-0.1-0.2-0.2-0.5c-0.1-0.3-0.2-0.8-0.4-1.3c-0.3-1.1-0.6-2.7-0.4-4.5
						c0.2-1.8,1-3.3,1.8-4.2c0.4-0.4,0.7-0.7,1-0.9c0.3-0.2,0.4-0.3,0.4-0.3c0,0-0.6,0.4-1.3,1.3c-0.7,0.9-1.5,2.3-1.7,4.1
						c-0.2,1.7,0.1,3.3,0.3,4.5c0.1,0.6,0.2,1,0.3,1.3C322.4,233,322.4,233.2,322.4,233.2z"/>
				</g>
			</g>
			<g>
				<g>
					<path class="st148" d="M320.2,297.5c0,0-0.2,0.3-0.6,0.8c-0.4,0.5-1.1,1.2-1.8,2c-1.5,1.7-3.6,4.1-5.2,7.2
						c-0.8,1.5-1.3,3.1-1.6,4.6c-0.3,1.5-0.3,2.8,0,3.9c0.3,1.1,1,1.7,1.5,2c0.6,0.3,0.9,0.2,0.9,0.3c0,0-0.1,0-0.3,0
						c-0.2,0-0.4,0-0.7-0.2c-0.3-0.1-0.7-0.3-1-0.7c-0.3-0.3-0.6-0.8-0.8-1.4c-0.4-1.1-0.3-2.6-0.1-4.1c0.3-1.5,0.8-3.1,1.6-4.7
						c0.8-1.6,1.7-3,2.7-4.2c0.9-1.2,1.9-2.2,2.7-3c0.8-0.8,1.5-1.5,1.9-1.9C319.9,297.7,320.2,297.5,320.2,297.5z"/>
				</g>
			</g>
			<g>
				<g>
					<path class="st148" d="M344.6,310.8c0.1,0,0,1.7-0.9,3.6c-0.9,1.9-2.2,3.1-2.2,3c-0.1-0.1,1-1.3,1.9-3.2
						C344.2,312.4,344.5,310.7,344.6,310.8z"/>
				</g>
			</g>
		</g>
		<g>
			<g>
				<path class="st90" d="M37.2,155.3c-0.5-1.9-0.8-4-0.8-4s2.2-1.3,1.4-1.4c-0.8,0-1.9,0.8-1.9,0.8s-2.1-3.4-2.9-3.3
					c-1,0.2-0.8,0.7-0.8,0.7s-0.9-0.4-1.2,0.1c0,0-0.9-0.2-1.2,0.4c-0.2,0.4,2.2,7.9,2.2,7.9L37.2,155.3z"/>
			</g>
			<g>
				<g>
					<g>
						<path class="st143" d="M62.5,314.1c0,0-0.6,4.4-0.6,6.4l12.5,0.3c-0.1-0.3-2.3-1.4-5.4-1.4l1-4.6
							C69.9,314.8,65.2,314,62.5,314.1z"/>
					</g>
					<g>
						<path class="st143" d="M46,314.1c0,0-0.6,4.4-0.6,6.4l12.5,0.3c-0.1-0.3-2.3-1.4-5.4-1.4l1-4.6C53.5,314.8,48.7,314,46,314.1z
							"/>
					</g>
					<g>
						<path class="st146" d="M55.3,224.8c0,0-5,4.7-4.1,28.2c0.9,23.5-5.8,64.3-5.8,64.3h7.5c0,0,6.9-26.8,9.5-42.7
							c2.2-13.4,3.3-29.6,3.3-29.6L55.3,224.8z"/>
					</g>
					<g>
						<path class="st146" d="M74.4,217.7c0,0,10.5,15.8,6.9,40.7c-3.6,24.9-12,59-12,59h-7.4c0,0,3.6-27.8,4.5-36
							c0.8-8.1,1.5-36.4,1.5-36.4L74.4,217.7z"/>
					</g>
					<g>
						<path class="st71" d="M51.5,190.8c0,0,0.9-7.2,7.8-8.1c6.9-0.8,8.1,0,8.1,0s11.4,3,14.8,9.9l-5.2,4.2l-1.5,13.6
							c-0.2,2.1,3.8,4.3-4.1,3.7l-11.8,0c-6.6,0.6-3.9-1.6-4.1-3.7L54.1,197C54,194.4,53.2,192.2,51.5,190.8z"/>
					</g>
					<g>
						<path class="st146" d="M74.2,214.2c0,0,4.2,9.5,4.4,13.2c0.1,0.8-10.8,17.6-10.8,17.6s-0.1-4.2-1.2-3.7
							c-1.1,0.4-0.9,3.7-0.9,3.7l-11.9-17.6l2.9-13.2L74.2,214.2z"/>
					</g>
					<g>
						<g>
							<g>
								<g>
									<g>
										<defs>
											<polygon id="SVGID_11_" points="46.4,148.4 44.8,147.2 46.6,145.5 47.7,146.8 											"/>
										</defs>
										<clipPath id="SVGID_12_">
											<use xlink:href="#SVGID_11_"  style="overflow:visible;"/>
										</clipPath>
										<polygon class="st149" points="47.7,145.9 47.6,145.5 47.7,145.5 										"/>
										<polygon class="st150" points="47.7,146.9 47.2,145.5 47.6,145.5 47.7,145.9 										"/>
										<polygon class="st151" points="47.7,147.9 46.9,145.5 47.2,145.5 47.7,146.9 										"/>
										<polygon class="st152" points="47.6,148.4 46.6,145.5 46.9,145.5 47.7,147.9 47.7,148.4 										"/>
										<polygon class="st153" points="47.2,148.4 46.2,145.5 46.6,145.5 47.6,148.4 										"/>
										<polygon class="st154" points="46.9,148.4 45.9,145.5 46.2,145.5 47.2,148.4 										"/>
										<polygon class="st155" points="46.6,148.4 45.6,145.5 45.9,145.5 46.9,148.4 										"/>
										<polygon class="st156" points="46.2,148.4 45.2,145.5 45.6,145.5 46.6,148.4 										"/>
										<polygon class="st157" points="45.9,148.4 44.9,145.5 45.2,145.5 46.2,148.4 										"/>
										<polygon class="st158" points="45.6,148.4 44.8,146.1 44.8,145.5 44.9,145.5 45.9,148.4 										"/>
										<polygon class="st159" points="45.2,148.4 44.8,147 44.8,146.1 45.6,148.4 										"/>
										<polygon class="st160" points="44.9,148.4 44.8,148 44.8,147 45.2,148.4 										"/>
										<polygon class="st161" points="44.8,148 44.9,148.4 44.8,148.4 										"/>
									</g>
								</g>
								<g>
									<path class="st78" d="M42.2,137.3c0,0-2.9-1.8-5.9-7.6c-3-5.8-3-11.5-3.7-12.3c-0.4-0.5-2.5-2.1-10.4,6.2
										c-7.9,8.2-6.9,11.1-6,11.4c0.9,0.3,7.6,0.7,11.2,2.4c3.7,1.7,7.9,5.4,7.9,5.4L42.2,137.3z"/>
								</g>
								<g>
									<path class="st162" d="M47.3,145.5l-1.8,1.7l-0.8,0.7c-1.1,1-2.8,1-3.9,0l-5.9-4.7l7-7.6l5.5,5.9
										C48.5,142.7,48.4,144.4,47.3,145.5z"/>
								</g>
								<g>
									<path class="st162" d="M41.9,147.3l-3.6,3.5l-1-0.7l-9,3.3l-0.6-4.5c0,0,4.8-0.4,6-1.6c1.3-1.2,0.5-1.9,0.5-1.9l2.7-1.5
										L41.9,147.3z"/>
								</g>
								<g>
									
										<ellipse transform="matrix(0.6857 -0.7279 0.7279 0.6857 -84.1203 57.231)" class="st163" cx="24.2" cy="126" rx="11.2" ry="2.5"/>
								</g>
								<g class="st164">
									<polygon class="st165" points="36.2,144.2 39.6,149.5 41.1,148.1 									"/>
								</g>
								<g class="st164">
									<polygon class="st165" points="46.9,145.8 45.2,147.5 45.5,147.8 47.1,146 									"/>
								</g>
								<g class="st144">
									<path class="st166" d="M35.3,142.8c0,0-1.1-0.9-1.1-0.9c0,0,6.7-5.7,6.7-5.7l0.3,0.3l-5.6,6.2"/>
								</g>
								<g class="st164">
									
										<ellipse transform="matrix(0.6859 -0.7277 0.7277 0.6859 -91.1209 76.974)" class="st165" cx="43.6" cy="144" rx="0.1" ry="2.3"/>
								</g>
								<g class="st164">
									
										<ellipse transform="matrix(0.7095 -0.7047 0.7047 0.7095 -87.7821 73.1197)" class="st165" cx="44.8" cy="143" rx="0.1" ry="2.1"/>
								</g>
								<g class="st164">
									<path class="st165" d="M44.1,146.7c0,0-0.2-0.1-0.5-0.3c-0.2-0.1-0.3-0.3-0.5-0.4c-0.2-0.2-0.4-0.4-0.6-0.6
										c-0.8-0.8-1.4-1.5-1.4-1.6c0.1-0.1,0.7,0.6,1.6,1.4c0.2,0.2,0.4,0.4,0.6,0.6c0.2,0.2,0.4,0.3,0.5,0.4
										C44,146.5,44.1,146.7,44.1,146.7z"/>
								</g>
								<g class="st167">
									<path class="st166" d="M23.6,125.7c0,0-4.4,4.3-3.1,6.9c0,0,2.5-1.9,3.4-2.9L23.6,125.7z"/>
								</g>
							</g>
						</g>
						<g class="st144">
							<path class="st166" d="M33.1,122c0,0-0.1,0.2-0.4,0.7c-0.2,0.4-0.6,1-1,1.8c-0.3,0.4-0.5,0.7-0.8,1.2
								c-0.1,0.2-0.3,0.4-0.5,0.6c-0.1,0.1-0.2,0.2-0.2,0.3c-0.1,0.1-0.2,0.2-0.3,0.3c-0.4,0.4-0.8,0.9-1.2,1.4
								c-0.1,0.1-0.2,0.2-0.3,0.4c-0.1,0.1-0.2,0.2-0.3,0.3c-0.2,0.2-0.5,0.5-0.7,0.7c-0.2,0.2-0.5,0.5-0.7,0.7
								c-0.1,0.1-0.2,0.2-0.3,0.3c-0.1,0.1-0.2,0.2-0.4,0.3c-0.5,0.4-0.9,0.8-1.4,1.2c-0.1,0.1-0.2,0.2-0.3,0.3
								c-0.1,0.1-0.2,0.2-0.3,0.2c-0.2,0.2-0.4,0.3-0.6,0.5c-0.4,0.3-0.8,0.6-1.2,0.8c-0.7,0.5-1.4,0.8-1.8,1
								c-0.4,0.2-0.7,0.4-0.7,0.4c0,0,0.2-0.2,0.6-0.4c0.4-0.3,1-0.6,1.7-1.1c0.3-0.3,0.7-0.5,1.1-0.8c0.2-0.2,0.4-0.3,0.6-0.5
								c0.1-0.1,0.2-0.2,0.3-0.2c0.1-0.1,0.2-0.2,0.3-0.3c0.4-0.4,0.9-0.8,1.4-1.2c0.1-0.1,0.2-0.2,0.4-0.3c0.1-0.1,0.2-0.2,0.3-0.3
								c0.2-0.2,0.5-0.5,0.7-0.7c0.2-0.2,0.5-0.5,0.7-0.7c0.1-0.1,0.2-0.2,0.3-0.3c0.1-0.1,0.2-0.2,0.3-0.4c0.4-0.5,0.8-0.9,1.2-1.4
								c0.1-0.1,0.2-0.2,0.3-0.3c0.1-0.1,0.2-0.2,0.2-0.3c0.2-0.2,0.3-0.4,0.5-0.6c0.3-0.4,0.6-0.8,0.8-1.1c0.5-0.7,0.8-1.3,1.1-1.7
								C32.9,122.3,33,122,33.1,122z"/>
						</g>
						<g>
							<g>
								<path class="st162" d="M28,125.4c0,0-2-2.5-4.8,0.7c-2.6,3-0.3,4.6-0.3,4.6C24.9,128.8,26.7,127.1,28,125.4z"/>
							</g>
							<g class="st164">
								<path class="st165" d="M22.3,129.9c0,0,3-1.7,5.7-4.6c-1.5,1.8-3.2,3.5-5.1,5.3C22.9,130.7,22.5,130.4,22.3,129.9z"/>
							</g>
						</g>
					</g>
					<g>
						<path class="st71" d="M67.6,186.5c0,0-21.3-5.3-23.4-10.2c-2.1-4.9-6.5-22.3-6.5-22.3l-6.6,0.9c0,0,3.1,20.1,7.1,26.9
							c3.9,6.8,25.1,13.8,25.1,13.8L67.6,186.5z"/>
					</g>
				</g>
				<g>
					<g>
						<g>
							<g>
								<path class="st168" d="M71.7,254.8c3.4-1.3,6.8-2.6,10.2-3.8c0.3-0.1,0.4,0.3,0.1,0.4c-3.4,1.3-6.8,2.5-10.2,3.7
									C71.6,255.2,71.5,254.8,71.7,254.8L71.7,254.8z"/>
							</g>
						</g>
						<g>
							<g>
								<path class="st168" d="M68.6,249.2c2.9-0.3,5.9-0.6,8.8-0.9c0.2,0,0.2,0.3,0,0.3c-2.9,0.3-5.9,0.6-8.8,0.8
									C68.4,249.5,68.4,249.2,68.6,249.2L68.6,249.2z"/>
							</g>
						</g>
						<g>
							<g>
								<path class="st168" d="M72.6,243.3c3.2-0.4,6.2-1.2,9.2-2.4c0.2-0.1,0.4,0.3,0.2,0.4c-3,1.3-6.1,2-9.3,2.4
									C72.3,243.7,72.3,243.3,72.6,243.3L72.6,243.3z"/>
							</g>
						</g>
						<g>
							<g>
								<path class="st168" d="M68,260c2.3,0.3,4.6,0.6,6.9,1c0.3,0.1,0.2,0.5-0.1,0.5c-2.3-0.3-4.5-0.7-6.8-1.1
									C67.7,260.3,67.8,260,68,260L68,260z"/>
							</g>
						</g>
						<g>
							<g>
								<path class="st168" d="M71.6,266.8c2.5,1.8,4.9,3.8,6.9,6.2c0.2,0.2-0.1,0.6-0.3,0.3c-2.1-2.2-4.3-4.4-6.7-6.2
									C71.3,266.9,71.5,266.6,71.6,266.8L71.6,266.8z"/>
							</g>
						</g>
						<g>
							<g>
								<path class="st168" d="M66.8,276.7c2.7-0.2,5.3-0.5,8-0.6c0.3,0,0.3,0.4,0,0.5c-2.7,0.2-5.3,0.4-8,0.5
									C66.5,277.1,66.5,276.8,66.8,276.7L66.8,276.7z"/>
							</g>
						</g>
						<g>
							<g>
								<path class="st168" d="M68.5,282.6c2.3,2.1,4.9,3.6,7.4,5.3c0.2,0.2,0,0.5-0.2,0.4c-2.7-1.3-5.2-3.4-7.4-5.5
									C68.1,282.7,68.3,282.5,68.5,282.6L68.5,282.6z"/>
							</g>
						</g>
						<g>
							<g>
								<path class="st168" d="M65.3,292.4c2.2-0.4,4.7-0.8,6.9-0.4c0.3,0,0.2,0.4-0.1,0.4c-2.3,0.1-4.5,0-6.8,0.3
									C65.2,292.7,65.1,292.4,65.3,292.4L65.3,292.4z"/>
							</g>
						</g>
						<g>
							<g>
								<path class="st168" d="M67.9,295.8c1.2,1.1,2.4,2.2,3.5,3.3c0.3,0.3-0.2,0.7-0.4,0.4c-1.1-1.1-2.2-2.3-3.3-3.5
									C67.4,295.9,67.7,295.6,67.9,295.8L67.9,295.8z"/>
							</g>
						</g>
						<g>
							<g>
								<path class="st168" d="M63.9,306.2c1.8-0.3,3.8-0.4,5.5,0.2c0.2,0.1,0.2,0.4-0.1,0.4c-1.8-0.1-3.6-0.5-5.4-0.4
									C63.8,306.5,63.8,306.3,63.9,306.2L63.9,306.2z"/>
							</g>
						</g>
						<g>
							<g>
								<path class="st168" d="M66.9,309.6c0.8,1.2,1.8,2.3,2.5,3.6c0.1,0.3-0.2,0.6-0.4,0.3c-0.9-1.1-1.6-2.5-2.4-3.7
									C66.5,309.6,66.8,309.4,66.9,309.6L66.9,309.6z"/>
							</g>
						</g>
						<g>
							<g>
								<path class="st168" d="M51.7,256.9c2.1-0.9,4.1-1.9,6.1-3c0.2-0.1,0.5,0.2,0.2,0.4c-1.9,1.2-4.1,2.2-6.2,3
									C51.7,257.3,51.5,257,51.7,256.9L51.7,256.9z"/>
							</g>
						</g>
						<g>
							<g>
								<path class="st168" d="M55.6,246.3c3.1,0.6,6.2,1.1,9.2,1.9c0.3,0.1,0.1,0.4-0.1,0.4c-3.1-0.5-6.1-1.3-9.2-2
									C55.3,246.6,55.4,246.3,55.6,246.3L55.6,246.3z"/>
							</g>
						</g>
						<g>
							<g>
								<path class="st168" d="M51.2,238c2.4,1.2,5,2.2,7.6,2.9c0.2,0.1,0.1,0.5-0.1,0.4c-2.7-0.7-5.2-1.8-7.6-3.1
									C51,238.1,51.1,237.9,51.2,238L51.2,238z"/>
							</g>
						</g>
						<g>
							<g>
								<path class="st168" d="M58.6,259.8c1.7,1.9,3.4,3.8,5.1,5.7c0.2,0.2-0.1,0.5-0.3,0.3c-1.7-1.9-3.3-3.9-5-5.8
									C58.3,259.9,58.5,259.7,58.6,259.8L58.6,259.8z"/>
							</g>
						</g>
						<g>
							<g>
								<path class="st168" d="M50.5,268.4c2.5,0,5.1,0.1,7.6,0.2c0.3,0,0.3,0.5,0,0.5c-2.5-0.1-5.1-0.2-7.6-0.4
									C50.3,268.7,50.3,268.4,50.5,268.4L50.5,268.4z"/>
							</g>
						</g>
						<g>
							<g>
								<path class="st168" d="M54.2,274c2.3,1.6,4.7,2.9,7.2,4c0.3,0.1,0.1,0.6-0.2,0.5c-2.6-1.1-5-2.5-7.2-4.2
									C53.9,274.1,54.1,273.9,54.2,274L54.2,274z"/>
							</g>
						</g>
						<g>
							<g>
								<path class="st168" d="M50.5,281.1c2.6,0.1,5.4,0,7.9,0.5c0.3,0.1,0.2,0.4-0.1,0.5c-2.5,0.2-5.3-0.4-7.8-0.6
									C50.3,281.5,50.3,281.1,50.5,281.1L50.5,281.1z"/>
							</g>
						</g>
						<g>
							<g>
								<path class="st168" d="M52.4,287.8c2.1,1.6,4.3,3.1,6.5,4.7c0.3,0.2,0,0.8-0.3,0.5c-2.1-1.6-4.2-3.3-6.4-4.9
									C52,288,52.2,287.6,52.4,287.8L52.4,287.8z"/>
							</g>
						</g>
						<g>
							<g>
								<path class="st168" d="M49.3,297.4c1.9,0.2,3.9,0.3,5.8,0.4c0.4,0,0.4,0.7,0,0.7c-1.9-0.2-3.9-0.5-5.8-0.8
									C49.1,297.7,49.1,297.4,49.3,297.4L49.3,297.4z"/>
							</g>
						</g>
						<g>
							<g>
								<path class="st168" d="M49.4,303.2c2.1,0.7,4.2,1.3,6.3,2c0.4,0.1,0.2,0.8-0.2,0.7c-2.1-0.8-4.1-1.6-6.2-2.4
									C49.1,303.4,49.2,303.1,49.4,303.2L49.4,303.2z"/>
							</g>
						</g>
						<g>
							<g>
								<path class="st168" d="M77.6,257.7c1.2,0.5,2.5,0.8,3.5,1.5c0.2,0.1,0.1,0.5-0.2,0.5c-1.2-0.4-2.4-1.1-3.5-1.6
									C77.2,257.9,77.4,257.6,77.6,257.7L77.6,257.7z"/>
							</g>
						</g>
					</g>
				</g>
				<g>
					<g>
						<path class="st93" d="M70.6,154c1.9,0.1,3.7,1,5,2.3c1.3,1.4,2,3.3,2,5.1c0,2.3-1.1,4.8,0,6.8c0.6,1,1.7,1.9,1.6,3.1
							c-0.1,0.8-0.7,1.4-0.8,2.2c-0.2,1.1,0.6,2,1,3.1c0.5,1.6-0.3,3.6-1.9,4.2c-0.8,0.3-1.7,0.3-2.5,0.3c-2.4-0.1-4.8-0.2-7.1-0.2
							c-6.6-0.2-13.1-0.4-19.6-1.7c-0.5-0.1-1.1-0.2-1.4-0.6c-0.6-0.6-0.5-1.5-0.4-2.3c0.2-1.1,0.4-2.4,1.4-2.8
							c0.8-0.4,2-0.1,2.4-0.9c0.4-0.6-0.1-1.4-0.3-2.2c-0.3-1.2,0.3-2.5,1.3-3.1c0.5-0.3,1-0.4,1.3-0.8c0.3-0.4,0.3-0.8,0.3-1.3
							c0.5-4.4,3.6-8.4,7.8-9.8"/>
					</g>
					<g>
						<path class="st90" d="M59.1,169.5l0.5,14c2.6,1.7,5.6,1.9,9.2,0v-13.8L59.1,169.5z"/>
					</g>
					<g>
						<path class="st90" d="M74.1,156.3c1.1,0,2,0.9,2,2c0,3.8,0,11.7-0.3,14.1c-0.5,4-3.8,6.4-6.9,6.4c-3.8-0.1-8.2-1.4-9.4-5.2
							c-1.2-3.8,0.3-17.3,0.3-17.3H74.1z"/>
					</g>
					<g>
						<g>
							<path class="st90" d="M59.5,164.8c0,0-4-0.9-4.1,3.1c-0.1,4,4.1,3.9,4.1,3.9V164.8z"/>
						</g>
						<g>
							<g>
								<path class="st92" d="M57.8,166.8c-0.7,0.3-1.1,1-1,1.8c0.1,0.7,0.7,1.4,1.5,1.3c0.3,0,0.3-0.4,0.1-0.6
									c-0.3-0.3-0.7-0.4-0.8-0.8c-0.2-0.5,0.1-1,0.5-1.3C58.2,167,58,166.7,57.8,166.8L57.8,166.8z"/>
							</g>
						</g>
					</g>
					<g>
						<g>
							<path class="st92" d="M61.5,175.7c1.8,2.4,4.7,3.7,7.6,3.4c0.2,0,0.2-0.3,0-0.3C66.2,178.8,63.6,177.7,61.5,175.7
								C61.5,175.6,61.5,175.6,61.5,175.7L61.5,175.7z"/>
						</g>
					</g>
					<g>
						<g>
							<path class="st94" d="M70.1,165.8c-0.2,0.7-0.2,1.4,0,2.1c0.1,0.3,0.3,0.6,0.5,0.9c0.5,1.1,0.3,1.7-0.4,2.6
								c-0.2,0.2,0.1,0.5,0.3,0.3c0.5-0.6,1.1-1.4,0.9-2.2c-0.1-0.4-0.3-0.6-0.5-0.9c-0.5-0.9-0.7-1.7-0.5-2.7
								C70.4,165.7,70.1,165.6,70.1,165.8L70.1,165.8z"/>
						</g>
					</g>
					<g>
						<g>
							<path class="st94" d="M66.8,172.8c0.4,0.5,0.9,1.1,1.6,1.2c0.5,0.1,1.1,0,1.3-0.5c0.1-0.1-0.1-0.2-0.2-0.2
								c-0.5,0.2-0.9,0.4-1.4,0.1c-0.4-0.2-0.7-0.6-1-0.9C66.9,172.5,66.7,172.7,66.8,172.8L66.8,172.8z"/>
						</g>
					</g>
					<g>
						<g>
							<path class="st94" d="M73.6,166.2c0.4,0,0.4-0.6,0-0.6C73.2,165.6,73.2,166.2,73.6,166.2L73.6,166.2z"/>
						</g>
					</g>
					<g>
						<g>
							<path class="st94" d="M66.2,166.2c0.4,0,0.4-0.6,0-0.6C65.8,165.6,65.8,166.2,66.2,166.2L66.2,166.2z"/>
						</g>
					</g>
					<g class="st95">
						<g>
							<path class="st92" d="M66.9,169.4c0.1,0.8-0.8,1.5-2,1.5c-1.2,0-2.1-0.7-2.1-1.5c0.1-0.8,1-1.3,2-1.4
								C65.9,168.1,66.8,168.6,66.9,169.4z"/>
						</g>
					</g>
					<g class="st95">
						<g>
							<path class="st92" d="M75.6,169.3c0,0.4-0.1,0.8-0.4,1c-0.3,0.3-0.7,0.5-1.1,0.5c-0.5,0-0.9-0.2-1.1-0.4
								c-0.3-0.3-0.4-0.6-0.4-1c0-0.4,0.2-0.7,0.5-1c0.3-0.2,0.6-0.4,1-0.4c0.4,0,0.7,0.1,1,0.4C75.4,168.6,75.6,169,75.6,169.3z"/>
						</g>
					</g>
					<g>
						<path class="st93" d="M75.9,156.9c-1.2,2.4-3.1,4.4-5.4,5.6c-0.6,0.3-1.3,0.6-1.9,0.5c-0.7-0.1-1.3-0.7-1.2-1.4
							c-0.5,0.7-1,1.5-1.7,2c-0.7,0.6-1.6,0.9-2.4,0.7c-0.9-0.2-1.6-1-1.5-1.9c-0.6,0.5-0.8,1.2-1.3,1.8c-0.5,0.6-1.4,0.9-1.9,0.4
							c-0.3-0.3-0.4-0.7-0.4-1.2c-0.3-2.5-0.5-5.2,1.2-7.1c1-1.1,2.5-1.7,3.9-2.1c2.2-0.6,4.6-1,6.9-0.7c2.3,0.3,4.6,1.5,5.8,3.5"/>
					</g>
					<g>
						<path class="st93" d="M60,155.7c0.6-0.9,0.5-2.2-0.1-3.1c-0.6-0.9-1.7-1.4-2.7-1.5c-1.3,0-2.7,0.8-2.7,2.1
							c0,1.1,0.9,2,1.8,2.6c1.2,0.8,2.7,1.4,3.9,0.6"/>
					</g>
					<g>
						<path class="st93" d="M69.7,154.1c0.1-1.1,0.2-2.2,0.8-3.1c0.6-0.9,1.8-1.5,2.8-1c1,0.5,1.2,2,0.6,3c-0.6,1-1.7,1.5-2.8,1.8
							c-1.1,0.2-2.3,0.3-3.4,0.5"/>
					</g>
					<g>
						<g>
							<path class="st93" d="M68,160.7c0,0,0.1,0.2,0.2,0.4c0.1,0.3,0.4,0.7,0.8,1c0.4,0.3,1,0.6,1.8,0.7c0.7,0.1,1.5-0.1,2.3-0.6
								c0.7-0.4,1.3-1,1.7-1.6c0.4-0.6,0.7-1.2,1-1.7c0.5-1,0.7-1.7,0.7-1.7c0,0,0,0.2-0.1,0.5c-0.1,0.3-0.2,0.7-0.4,1.3
								c-0.2,0.5-0.5,1.1-1,1.7c-0.4,0.6-1,1.2-1.8,1.6c-0.8,0.4-1.6,0.6-2.4,0.6c-0.8-0.1-1.4-0.4-1.8-0.8
								c-0.4-0.4-0.7-0.8-0.8-1.1c-0.1-0.1-0.1-0.3-0.1-0.4C68,160.7,68,160.7,68,160.7z"/>
						</g>
					</g>
					<g>
						<g>
							<path class="st93" d="M54.1,156c0,0,0.2,0.2,0.5,0.5c0.3,0.3,0.9,0.6,1.5,0.7c0.7,0.1,1.3,0,1.7-0.2c0.4-0.1,0.7-0.3,0.7-0.3
								c0,0-0.2,0.2-0.6,0.4c-0.4,0.2-1.1,0.3-1.8,0.2c-0.7-0.1-1.3-0.5-1.6-0.8C54.2,156.3,54.1,156,54.1,156z"/>
						</g>
					</g>
					<g>
						<g>
							<path class="st93" d="M76.5,153.5c0,0,0,0.4-0.4,0.8c-0.2,0.2-0.5,0.4-0.8,0.5c-0.4,0.1-0.8,0.1-1.2,0.1
								c-0.8-0.1-1.5-0.6-1.9-0.9c-0.4-0.3-0.7-0.6-0.6-0.6c0,0,0.3,0.2,0.7,0.5c0.4,0.3,1.1,0.7,1.9,0.8c0.4,0.1,0.8,0.1,1.1,0
								c0.3-0.1,0.6-0.2,0.8-0.4C76.4,153.8,76.5,153.5,76.5,153.5z"/>
						</g>
					</g>
					<g>
						<g>
							<path class="st93" d="M54.8,160.2c0,0,0,0.1,0,0.2c0,0.2,0,0.4-0.1,0.7c-0.1,0.6-0.4,1.4-1.1,2.3c-0.3,0.4-0.8,0.8-1.3,1.1
								c-0.5,0.3-1.2,0.6-1.7,1c-0.6,0.4-1,1-1.2,1.7c-0.1,0.4-0.1,0.7-0.1,1.1c0.1,0.4,0.2,0.8,0.2,1.2c0.1,0.4,0,0.9-0.2,1.2
								c-0.3,0.3-0.7,0.5-1.1,0.6c-0.4,0.1-0.7,0.2-1,0.3c-0.3,0.2-0.6,0.4-0.8,0.6c-0.4,0.5-0.6,1.2-0.7,1.8
								c-0.1,0.6,0,1.2,0.2,1.7c0.3,1,0.8,1.7,1.1,2.2c0.1,0.2,0.3,0.4,0.4,0.6c0.1,0.1,0.1,0.2,0.1,0.2c0,0-0.1-0.1-0.1-0.2
								c-0.1-0.1-0.2-0.3-0.4-0.6c-0.3-0.5-0.8-1.2-1.1-2.2c-0.2-0.5-0.3-1.1-0.2-1.7c0.1-0.6,0.3-1.3,0.7-1.9
								c0.2-0.3,0.5-0.5,0.9-0.7c0.3-0.2,0.7-0.2,1.1-0.3c0.4-0.1,0.7-0.2,0.9-0.5c0.2-0.3,0.3-0.7,0.2-1.1
								c-0.1-0.4-0.2-0.8-0.2-1.2c-0.1-0.4,0-0.8,0.1-1.2c0.2-0.8,0.7-1.4,1.3-1.8c0.6-0.4,1.2-0.6,1.8-0.9c0.5-0.3,1-0.7,1.3-1.1
								c0.7-0.8,1-1.6,1.1-2.2C54.8,160.5,54.8,160.2,54.8,160.2z"/>
						</g>
					</g>
					<g>
						<g>
							<path class="st93" d="M78.6,179.1c0,0,0-0.1-0.1-0.2c0-0.2-0.1-0.4-0.2-0.7c-0.1-0.6-0.1-1.6,0.4-2.6c0.2-0.5,0.6-1,1-1.5
								c0.4-0.5,0.7-1.1,0.8-1.9c0-0.7-0.2-1.5-0.7-2.1c-0.5-0.6-1.3-1-1.7-1.9c-0.2-0.4-0.2-0.9-0.2-1.3c0-0.4,0.2-0.8,0.3-1.2
								c0.2-0.8,0.4-1.5,0.4-2.3c0-1.5-0.3-2.8-0.8-3.8c-0.5-1-1-1.7-1.5-2.2c-0.2-0.2-0.4-0.4-0.5-0.5c-0.1-0.1-0.2-0.2-0.2-0.2
								s0.1,0,0.2,0.2c0.1,0.1,0.3,0.3,0.5,0.5c0.4,0.5,1,1.2,1.5,2.2c0.5,1,0.9,2.4,0.9,3.9c0,0.8-0.1,1.5-0.4,2.3
								c-0.1,0.4-0.2,0.8-0.3,1.2c0,0.4,0,0.8,0.2,1.2c0.4,0.7,1.1,1.2,1.7,1.8c0.6,0.6,0.8,1.5,0.8,2.2c0,0.4-0.1,0.8-0.3,1.1
								c-0.2,0.3-0.3,0.6-0.5,0.9c-0.4,0.5-0.8,1-1,1.5c-0.5,1-0.5,1.9-0.5,2.6C78.5,178.8,78.7,179.1,78.6,179.1z"/>
						</g>
					</g>
				</g>
				<g>
					<g>
						<path class="st142" d="M77.9,221.3c0,0-3.8,5.3-3.4,5.9c0.3,0.4,1.4-1.3,1.4-1.3s0,4,0.5,4c0.5,0.1,0.4-4.2,0.5-3
							c0.1,1.2,0.3,3.1,0.7,2.6c0.4-0.5,0.3-2.4,0.3-2.4s0.5,1.3,0.9,1.2c0.4-0.1-0.4-2,0.5-2.8c0.9-0.8,2.1-2,2.1-2L77.9,221.3z"/>
					</g>
					<g>
						<path class="st71" d="M80.2,225.2c0,0,16.2-13.8,14.9-18.3c-0.8-3-16.3-18.4-16.3-18.4l-7.5,8.5l14,12l-8.6,14L80.2,225.2z"/>
					</g>
				</g>
				<g>
					<g>
						<path class="st169" d="M58.7,174c0,0-0.2,0.4-0.9,0.4c-0.3,0-0.7,0-1.1-0.3c-0.4-0.2-0.7-0.6-0.8-1.1c-0.1-0.5,0-1,0.2-1.4
							c0.2-0.4,0.6-0.6,0.9-0.7c0.6-0.2,1-0.1,1,0c0,0.1-0.4,0-0.9,0.3c-0.2,0.1-0.5,0.3-0.7,0.7c-0.2,0.3-0.2,0.7-0.1,1.1
							c0.1,0.4,0.3,0.7,0.6,0.9c0.3,0.2,0.6,0.3,0.9,0.3C58.4,174.1,58.7,173.9,58.7,174z"/>
					</g>
				</g>
				<g>
					<g>
						<path class="st169" d="M75.8,202.3c0,0,0.3-0.4,0.7-1.1c0.4-0.7,0.7-1.8,0.5-2.9c-0.2-1.2-0.9-2.1-1.5-2.6
							c-0.6-0.5-1-0.7-1-0.8c0,0,0.5,0.1,1.2,0.6c0.7,0.5,1.4,1.4,1.7,2.7c0.2,1.3-0.2,2.5-0.7,3.1C76.2,202,75.8,202.3,75.8,202.3z
							"/>
					</g>
				</g>
				<g>
					<g>
						<path class="st169" d="M67,234.4c0,0-0.1,0-0.2-0.1c-0.1-0.1-0.3-0.2-0.5-0.4c-0.2-0.2-0.4-0.4-0.6-0.8
							c-0.2-0.3-0.3-0.7-0.5-1.2c-0.2-0.9-0.3-2-0.3-3.3c0-1.2,0-2.6,0-4c0.1-2.8,0.2-5.4,0.4-7.2c0.1-0.9,0.2-1.7,0.2-2.2
							c0.1-0.5,0.1-0.8,0.1-0.8c0,0,0,0.3,0,0.8c0,0.5-0.1,1.3-0.1,2.2c-0.1,1.8-0.2,4.4-0.3,7.2c0,1.4-0.1,2.8-0.1,4
							c0,1.2,0,2.3,0.2,3.2c0.1,0.4,0.2,0.8,0.4,1.2c0.2,0.3,0.3,0.6,0.5,0.8C66.8,234.3,67,234.4,67,234.4z"/>
					</g>
				</g>
				<g>
					<g>
						<path class="st169" d="M66.9,216c0,0,0-0.1,0.1-0.2c0.1-0.1,0.3-0.2,0.6-0.2c0.1,0,0.3,0.1,0.4,0.2c0.1,0.1,0.3,0.3,0.3,0.5
							c0.1,0.4,0,0.9-0.5,1.1c-0.4,0.2-0.9,0.1-1.2-0.2c-0.1-0.1-0.2-0.3-0.2-0.5c0-0.2,0-0.3,0.1-0.5c0.1-0.3,0.3-0.4,0.4-0.5
							c0.1-0.1,0.2,0,0.2,0c0,0.1-0.3,0.2-0.4,0.6c-0.1,0.2,0,0.4,0.2,0.6c0.2,0.2,0.5,0.2,0.7,0.1c0.2-0.1,0.3-0.4,0.3-0.7
							c0-0.2-0.2-0.4-0.4-0.4C67.2,215.8,66.9,216,66.9,216z"/>
					</g>
				</g>
				<g>
					<g>
						<path class="st169" d="M60.7,217.4c0,0,0.3,0.5,0.3,1.4c0,0.9-0.4,2.2-1.4,3.3c-1,1-2.3,1.4-3.2,1.4c-0.9,0-1.5-0.2-1.4-0.2
							c0-0.1,0.6,0.1,1.4,0c0.9-0.1,2-0.5,3-1.4c0.9-0.9,1.3-2.1,1.4-3C60.8,217.9,60.6,217.4,60.7,217.4z"/>
					</g>
				</g>
				<g>
					<g>
						<path class="st169" d="M76.7,223.1c0,0-0.4,0.3-1.2,0.3c-0.8,0-1.9-0.3-2.7-1.2c-0.8-0.9-1-2.1-0.9-2.8
							c0.1-0.8,0.3-1.2,0.4-1.2c0.1,0-0.1,0.5-0.1,1.2c0,0.7,0.2,1.7,1,2.6c0.7,0.8,1.7,1.1,2.5,1.2C76.2,223.2,76.6,223,76.7,223.1
							z"/>
					</g>
				</g>
				<g class="st170">
					<g>
						<path class="st171" d="M64.9,195.3c0-1.3-0.8-2.5-2-3c-1.2-0.5-2.7-0.1-3.4,1c-0.9,1.4-0.3,3.3,0.6,4.7c1.6,2.8,3.8,5.2,6.5,7
							c2.4-2.7,4.1-5.9,5.1-9.3c0.2-0.7,0.4-1.5,0.1-2.1c-0.5-1.3-2.2-1.6-3.5-1.2c-1.7,0.6-3,2.1-3.3,3.8"/>
					</g>
				</g>
				<g>
					<path class="st80" d="M59.4,200.3c0.1-1.8,0.7-5.7,1.1-7.7c0-0.1,0.1-0.1,0.2-0.1c0.3,0,0.8,0.3,0.8,0.5
						c-0.4,2.5-0.9,5.2-1,7.8c0,0.3,0,0.6-0.1,1c-0.1,0.2-0.9-0.2-0.9-0.4C59.3,201.2,59.4,200.7,59.4,200.3z"/>
					<path class="st80" d="M62.7,195.1c0.2,0.1,0.3,0.2,0.3,0.3c0,0,0.2-0.1,0.4-0.1c1.2,0,1.4,1.1,1.4,2.4c0,1.3-0.5,4.1-2,4.1
						c-1.2,0-1.7-1.6-1.7-2.9C61.2,197.3,62,195.3,62.7,195.1z M62.6,200.9c1.1,0,1.5-3.2,1.5-3.9c0-0.3,0.1-1.2-0.4-1.2
						c-0.7,0-1.2,2.1-1.4,2.7c0,0-0.3,0-0.3-0.1c0,0-0.1,0.3-0.1,0.8C61.9,200.2,62.1,200.9,62.6,200.9z"/>
					<path class="st80" d="M66.2,199.8c0.1-0.7,1.1-5.3,1.7-5.3c0.2,0,0.5,0.1,0.5,0.3c0,0.1-0.3,0.6-0.3,0.8
						c-0.6,1.9-1.3,4.4-1.3,6.4c0,0-0.1,0.2-0.3,0.2c-0.6,0-1-0.4-1-1c0-0.4-0.2-1.5-0.2-2.9c0-1.2,0.1-3,0.1-3
						c0-0.1,0.1-0.2,0.3-0.2c0.2,0,0.8,0.2,0.8,0.4c-0.2,1-0.2,2.5-0.2,2.8C66.1,199,66.1,199.6,66.2,199.8L66.2,199.8z"/>
					<path class="st80" d="M69.6,195c0.4,0,1,0.4,1,1.4c0,1.5-0.4,2.9-1.4,2.9c-0.5,0-0.7-0.5-0.7-0.5s-0.2,0.6-0.2,1.6
						c0,0.6,0.2,1,0.8,1c0.9,0,1.6-1.5,1.6-2.3c0,0,0-0.1,0.2-0.1c0.2,0,0.3,0.2,0.3,0.6c0,1-0.6,2.8-2,2.8c-0.9,0-1.8-0.8-1.8-2.3
						C67.6,198,68.6,195,69.6,195z M69,198.6c0.4,0,0.8-1.3,0.8-2.4c0-0.5-0.1-0.6-0.1-0.6c0,0-0.1,0-0.2,0.2
						c-0.3,0.6-0.6,1.6-0.7,2.5C68.7,198.3,68.8,198.6,69,198.6z"/>
				</g>
			</g>
			<g>
				<g>
					<path class="st169" d="M60.6,155.3c0,0,0,0.2-0.2,0.5c-0.2,0.3-0.5,0.6-0.9,0.8c-0.4,0.2-0.8,0.3-1.2,0.3c-0.3,0-0.5,0-0.5-0.1
						c0-0.1,0.7-0.2,1.5-0.6C60,155.8,60.5,155.2,60.6,155.3z"/>
				</g>
			</g>
			<g>
				<g>
					<path class="st169" d="M72.7,154.2c0,0-0.1,0.2-0.5,0.3c-0.3,0.1-0.8,0.1-1.2,0c-0.5-0.1-0.9-0.4-1.1-0.6
						c-0.2-0.2-0.3-0.4-0.3-0.5c0.1-0.1,0.6,0.5,1.4,0.7C71.9,154.3,72.6,154.1,72.7,154.2z"/>
				</g>
			</g>
		</g>
		<g>
			<g>
				<g>
					<path class="st132" d="M225.8,132.6v-4.2c0,0-5.7-2.4-5.4-10.5c0.3-8.1,6.3-9.2,10-9.2c4.6,0,9,3.1,9.1,9.6
						c0,6.7-4.9,9.8-4.9,9.8l-0.1,4.4H225.8z"/>
				</g>
				<g>
					<g>
						<path class="st172" d="M232.3,132.6c0,0,0,0,0-0.1c0-0.1,0-0.2-0.1-0.4c-0.1-0.3-0.1-0.8-0.2-1.4c-0.2-1.3-0.3-3.1-0.4-5.3
							c0-1.1-0.1-2.4-0.1-3.7c0-0.7,0.1-1.4,0.3-2.1c0.1-0.3,0.3-0.7,0.5-1c0.2-0.3,0.5-0.6,0.9-0.7c0.2-0.1,0.4-0.1,0.6-0.1
							c0.2,0,0.4,0.1,0.6,0.3c0.3,0.3,0.3,0.8,0.2,1.2c-0.3,0.8-1,1.3-1.8,1.5c-0.8,0.2-1.7-0.1-2.4-0.7c-0.3-0.3-0.6-0.7-0.6-1.1
							c0-0.2,0-0.5,0.1-0.7c0.1-0.2,0.3-0.4,0.5-0.5c0.2-0.1,0.5,0,0.7,0.1c0.2,0.2,0.3,0.4,0.3,0.6c0.1,0.5-0.1,0.9-0.3,1.3
							c-0.5,0.7-1.3,1.2-2.2,1.1c-0.9-0.1-1.6-0.6-2-1.3c-0.2-0.4-0.3-0.8-0.2-1.2c0-0.2,0.1-0.4,0.2-0.6c0.1-0.2,0.3-0.3,0.5-0.3
							c0.2,0,0.4,0.1,0.6,0.2c0.1,0.1,0.3,0.3,0.3,0.5c0.2,0.3,0.2,0.7,0.3,1c0.2,0.7,0.3,1.4,0.3,2c0.2,1.3,0.2,2.6,0.1,3.7
							c-0.1,2.3-0.5,4.1-0.9,5.3c-0.2,0.6-0.3,1.1-0.5,1.4c-0.1,0.1-0.1,0.3-0.1,0.4c0,0.1-0.1,0.1-0.1,0.1c0,0,0,0,0-0.1
							c0-0.1,0.1-0.2,0.1-0.4c0.1-0.3,0.3-0.8,0.4-1.4c0.3-1.2,0.7-3,0.8-5.2c0-1.1,0-2.4-0.2-3.7c-0.1-0.7-0.2-1.3-0.4-2
							c-0.1-0.3-0.1-0.7-0.3-1c-0.2-0.3-0.4-0.6-0.7-0.6c-0.3,0-0.5,0.4-0.6,0.7c0,0.4,0.1,0.7,0.2,1.1c0.3,0.7,1,1.2,1.8,1.2
							c0.8,0.1,1.6-0.4,2-1c0.2-0.3,0.4-0.7,0.3-1.1c0-0.2-0.1-0.4-0.2-0.5c-0.1-0.1-0.3-0.2-0.5-0.1c-0.2,0.1-0.3,0.2-0.4,0.4
							c-0.1,0.2-0.1,0.4,0,0.6c0.1,0.4,0.3,0.7,0.6,1c0.6,0.6,1.4,0.8,2.2,0.6c0.8-0.2,1.4-0.7,1.7-1.4c0.1-0.3,0.1-0.7-0.1-1
							c-0.2-0.3-0.6-0.3-0.9-0.2c-0.3,0.1-0.6,0.3-0.8,0.6c-0.2,0.3-0.4,0.6-0.5,0.9c-0.2,0.7-0.3,1.3-0.3,2c0,1.3,0,2.6,0,3.7
							c0.1,2.2,0.2,4.1,0.4,5.3c0.1,0.6,0.1,1.1,0.2,1.4c0,0.2,0,0.3,0,0.4C232.3,132.6,232.3,132.6,232.3,132.6z"/>
					</g>
				</g>
			</g>
			<g>
				<g>
					
						<ellipse transform="matrix(0.9081 -0.4188 0.4188 0.9081 -34.9925 103.7478)" class="st132" cx="218.8" cy="131.6" rx="1.7" ry="0.5"/>
				</g>
			</g>
			<g>
				<g>
					
						<ellipse transform="matrix(0.9836 -0.1804 0.1804 0.9836 -18.7132 40.8668)" class="st132" cx="215.3" cy="123.3" rx="1.9" ry="0.5"/>
				</g>
			</g>
			<g>
				<g>
					<path class="st132" d="M218,114.1c0,0.3-0.8,0.4-1.7,0.1c-0.9-0.3-1.5-0.9-1.3-1.2c0.1-0.2,0.9-0.1,1.6,0.2
						C217.4,113.5,218.1,113.8,218,114.1z"/>
				</g>
			</g>
			<g>
				<g>
					
						<ellipse transform="matrix(0.8417 -0.5399 0.5399 0.8417 -21.5083 137.1181)" class="st132" cx="223.1" cy="105.2" rx="0.5" ry="1.6"/>
				</g>
			</g>
			<g>
				<g>
					<path class="st132" d="M234.1,103.8c0.3,0,0.4,0.9,0.2,1.8c-0.3,1-0.8,1.6-1.1,1.5c-0.3-0.1-0.2-0.9,0.1-1.8
						C233.5,104.5,233.8,103.8,234.1,103.8z"/>
				</g>
			</g>
			<g>
				<g>
					<path class="st132" d="M242.9,109.6c0.2,0.2-0.3,0.9-1.1,1.3c-0.8,0.4-1.6,0.4-1.7,0.1c-0.1-0.3,0.5-0.6,1.2-1
						C242.1,109.7,242.7,109.4,242.9,109.6z"/>
				</g>
			</g>
			<g>
				<g>
					<ellipse class="st132" cx="243.7" cy="118" rx="1.8" ry="0.5"/>
				</g>
			</g>
			<g>
				<g>
					
						<ellipse transform="matrix(0.5632 -0.8263 0.8263 0.5632 2.23 254.2707)" class="st132" cx="241.6" cy="125" rx="0.5" ry="1.4"/>
				</g>
			</g>
			<g>
				<g>
					
						<ellipse transform="matrix(0.5383 -0.8428 0.8428 0.5383 0.5892 262.2012)" class="st132" cx="239.6" cy="130.6" rx="0.5" ry="1.5"/>
				</g>
			</g>
		</g>
		<g>
			<g>
				<polygon class="st84" points="284.4,188.8 284.4,212.2 295.6,211.8 295.6,220.6 303.3,212 341.2,211.6 342,188.1 				"/>
			</g>
			<g>
				<rect x="290.5" y="194.1" class="st71" width="11.8" height="13.1"/>
				<path class="st71" d="M307.3,195c9.8,0,19.7,0,29.5,0c0.3,0,0.3-0.5,0-0.5c-9.8,0-19.7,0-29.5,0C307,194.5,307,195,307.3,195
					L307.3,195z"/>
				<path class="st71" d="M307.3,198.3c9.8,0,19.7,0,29.5,0c0.3,0,0.3-0.5,0-0.5c-9.8,0-19.7,0-29.5,0
					C307,197.8,307,198.3,307.3,198.3L307.3,198.3z"/>
				<path class="st71" d="M307.3,201.7c9.8,0,19.7,0,29.5,0c0.3,0,0.3-0.5,0-0.5c-9.8,0-19.7,0-29.5,0
					C307,201.2,307,201.7,307.3,201.7L307.3,201.7z"/>
				<path class="st71" d="M307.3,205c5.6,0,11.2,0,16.8,0c0.3,0,0.3-0.5,0-0.5c-5.6,0-11.2,0-16.8,0C307,204.5,307,205,307.3,205
					L307.3,205z"/>
			</g>
		</g>
		<g>
			<path class="st146" d="M133.6,68c-5.6,5.6-11.2,11.2-16.8,16.8c0.4,0,0.9,0,1.3,0c-5.6-5.6-11.2-11.2-16.8-16.8
				c0,0.4,0,0.9,0,1.3c5.6-5.6,11.2-11.2,16.8-16.8c-0.4,0-0.9,0-1.3,0c5.6,5.6,11.2,11.2,16.8,16.8c0.9,0.9,2.2-0.5,1.3-1.3
				c-5.6-5.6-11.2-11.2-16.8-16.8c-0.4-0.4-1-0.4-1.3,0c-5.6,5.6-11.2,11.2-16.8,16.8c-0.4,0.4-0.4,1,0,1.3
				c5.6,5.6,11.2,11.2,16.8,16.8c0.4,0.4,1,0.4,1.3,0c5.6-5.6,11.2-11.2,16.8-16.8C135.8,68.5,134.4,67.2,133.6,68z"/>
		</g>
		<g>
			<path class="st86" d="M277.6,39.4c0,16.1,0,32.1,0,48.2c0,2.3,0,4.6,0,6.9c0,0.7,0.8,1.2,1.4,0.8c14.5-8,29-16.1,43.4-24.1
				c2.1-1.2,4.2-2.3,6.3-3.5c0.6-0.3,0.6-1.3,0-1.6c-14.5-8-29-16.1-43.4-24.1c-2.1-1.2-4.2-2.3-6.3-3.5c-1.1-0.6-2,1-1,1.6
				c14.5,8,29,16.1,43.4,24.1c2.1,1.2,4.2,2.3,6.3,3.5c0-0.5,0-1.1,0-1.6c-14.5,8-29,16.1-43.4,24.1c-2.1,1.2-4.2,2.3-6.3,3.5
				c0.5,0.3,1,0.5,1.4,0.8c0-16.1,0-32.1,0-48.2c0-2.3,0-4.6,0-6.9C279.5,38.2,277.6,38.2,277.6,39.4z"/>
		</g>
		<path class="st86" d="M46.8,97c-3.9-0.6-7.9,2.6-8.1,6.5c-0.2,3.9,3.4,7.6,7.3,7.4c3.9-0.2,7.1-4.3,6.5-8.1
			c-0.7-3.9-5.2-6.5-8.9-5.3"/>
		<linearGradient id="SVGID_13_" gradientUnits="userSpaceOnUse" x1="236.0927" y1="61.544" x2="249.9786" y2="61.544">
			<stop  offset="2.846260e-03" style="stop-color:#AEF6BF"/>
			<stop  offset="1" style="stop-color:#8ED3BB"/>
		</linearGradient>
		<path class="st173" d="M244.3,54.6c-3.9-0.6-7.9,2.6-8.1,6.5c-0.2,3.9,3.4,7.6,7.3,7.4c3.9-0.2,7.1-4.3,6.5-8.1
			c-0.7-3.9-5.2-6.5-8.9-5.3"/>
		<linearGradient id="SVGID_14_" gradientUnits="userSpaceOnUse" x1="281.633" y1="298.9023" x2="288.9695" y2="298.9023">
			<stop  offset="2.846260e-03" style="stop-color:#AEF6BF"/>
			<stop  offset="1" style="stop-color:#8ED3BB"/>
		</linearGradient>
		<path class="st174" d="M285.9,295.3c-2-0.3-4.2,1.4-4.3,3.4c-0.1,2.1,1.8,4,3.9,3.9c2.1-0.1,3.8-2.3,3.4-4.3
			c-0.4-2-2.7-3.5-4.7-2.8"/>
		<path class="st132" d="M354.8,141.6c-2.3-0.4-4.7,1.5-4.8,3.8c-0.1,2.3,2,4.5,4.3,4.3c2.3-0.1,4.2-2.5,3.8-4.8
			c-0.4-2.3-3-3.8-5.2-3.1"/>
		<path class="st132" d="M44,202.4c-2.3-0.4-4.7,1.5-4.8,3.8c-0.1,2.3,2,4.5,4.3,4.3c2.3-0.1,4.2-2.5,3.8-4.8
			c-0.4-2.3-3-3.8-5.2-3.1"/>
		
			<rect x="347.8" y="97.8" transform="matrix(0.9318 0.363 -0.363 0.9318 62.4334 -121.7619)" class="st146" width="14.8" height="14.8"/>
		
			<rect x="358" y="171.4" transform="matrix(0.9318 0.3631 -0.3631 0.9318 89.857 -120.4611)" class="st80" width="14.8" height="14.8"/>
		<g>
			<path class="st79" d="M82.4,90.2c4.9,0,4.9-7.6,0-7.6C77.5,82.6,77.5,90.2,82.4,90.2L82.4,90.2z"/>
		</g>
		<path class="st132" d="M43.8,139.3c-2.2-0.4-4.6,1.5-4.7,3.8c-0.1,2.3,2,4.4,4.2,4.3c2.3-0.1,4.1-2.5,3.7-4.7
			c-0.4-2.2-3-3.8-5.1-3.1"/>
	</g>
</g>
<g id="Designed_by_freepik">
</g>
</svg>
